<svg xmlns="http://www.w3.org/2000/svg" viewBox="0 0 80 80" width="16px" height="16px"><path fill="#66798f" d="M14.5,37.6h-1c0-7.3-2-11.2-3.9-15C8,19.3,6.4,16.3,6.4,11.5c0-2.9,0.7-5,2.2-6.5 c3.1-3.1,9.4-3.1,17.2-3c1.3,0,2.6,0,3.9,0H40v1H29.8c-1.4,0-2.7,0-3.9,0C18.2,2.9,12.2,2.9,9.4,5.7C8.1,7,7.4,8.9,7.4,11.5 c0,4.6,1.5,7.5,3.1,10.6C12.4,25.8,14.5,30,14.5,37.6z"/><path fill="#e8d47b" d="M63,51.5c-4.7,0-8.5-3.8-8.5-8.5s3.8-8.5,8.5-8.5c6,0,8.5,1.6,8.5,5.5C71.5,44.5,67.7,51.5,63,51.5z"/><path fill="#ba9b48" d="M63,35c5.7,0,8,1.4,8,5c0,4.3-3.6,11-8,11c-4.4,0-8-3.6-8-8S58.6,35,63,35 M63,34c-5,0-9,4-9,9 s4,9,9,9s9-7,9-12S68,34,63,34L63,34z"/><path fill="#ffeea3" d="M39.8,77.5c-3.9,0-7.6-1.9-9.9-5.1l-0.1-0.1l-0.1-0.1c-9.2-4-15.2-13.1-15.2-23.1V27.7 c0-13.9,11.3-25.2,25.2-25.2h0.7c13.9,0,25.2,11.3,25.2,25.2v21.5c0,10-6,19.1-15.2,23.1l-0.1,0.1l-0.1,0.1 c-2.3,3.2-6,5.1-9.9,5.1H39.8z"/><path fill="#ba9b48" d="M40.3,3C53.9,3,65,14.1,65,27.7v21.5c0,9.8-5.8,18.7-14.9,22.6l-0.2,0.1l-0.2,0.2 c-2.2,3-5.8,4.9-9.5,4.9h-0.3c-3.7,0-7.3-1.8-9.5-4.9l-0.2-0.2l-0.2-0.1C20.8,67.9,15,59,15,49.2V27.7C15,14.1,26.1,3,39.7,3H40.3 M40.3,2h-0.7C25.5,2,14,13.5,14,27.7v21.5c0,10.6,6.4,19.6,15.5,23.6c2.3,3.2,6.1,5.3,10.4,5.3h0.3c4.3,0,8-2.1,10.4-5.3 c9.1-3.9,15.5-13,15.5-23.6V27.7C66,13.5,54.5,2,40.3,2L40.3,2z"/><path fill="#36404d" d="M53 40A3 3 0 1 0 53 46 3 3 0 1 0 53 40zM27 40A3 3 0 1 0 27 46 3 3 0 1 0 27 40z"/><path fill="#839cb2" d="M23.5,68.7c-2.7-2-13-10.7-13-26.7v-0.5c0-4.6,0-11.4,1.9-17H54c0.8,0,1.5,0.7,1.5,1.5v6 c0,0.8-0.7,1.5-1.5,1.5h-4c-2.5,0-4.5,2-4.5,4.5v8c0,1.9-1.6,3.5-3.5,3.5C27.5,49.5,24.1,64.9,23.5,68.7z M24,35.5 c-2.5,0-4.5,2-4.5,4.5v6c0,2.2,1.8,4.2,3.8,4.2c0.4,0,0.7-0.1,1-0.2L35,46.8c1.5-0.6,1.5-1.5,1.5-2.7V38c0-1.4-1.1-2.5-2.5-2.5H24 z"/><path fill="#66798f" d="M54,25c0.6,0,1,0.4,1,1v6c0,0.6-0.4,1-1,1h-4c-2.8,0-5,2.2-5,5v8c0,1.6-1.4,3-3.1,3 C28,49,24.1,62.9,23.1,67.8C19.8,65.1,11,56.7,11,42v-0.5c0-4.5,0-11.1,1.7-16.5H54 M23.3,50.7c0.4,0,0.8-0.1,1.2-0.2l10.6-3.2 l0,0l0,0c1.8-0.7,1.8-1.9,1.8-3.2l0-0.1v-6c0-1.7-1.3-3-3-3H24c-2.8,0-5,2.2-5,5v6C19,48.4,21,50.7,23.3,50.7 M54,24H12 c-2.1,5.9-2,13.2-2,18c0,18.8,13.9,27.6,13.9,27.6S25.8,50,41.9,50c0,0,0,0,0,0c0,0,0,0,0,0c2.2,0,4-1.8,4-4l0-8c0-2.2,1.8-4,4-4 h4c1.1,0,2-0.9,2-2v-6C56,24.9,55.1,24,54,24L54,24z M23.3,49.7c-1.7,0-3.3-1.8-3.3-3.7v-6c0-2.2,1.8-4,4-4h10c1.1,0,2,0.9,2,2v6 c0,1.3,0,1.9-1.2,2.3l-10.6,3.2C23.9,49.6,23.6,49.7,23.3,49.7L23.3,49.7z"/><path fill="#36404d" d="M29.2,34h-8.4c-1.5,0-2.8-1.3-2.8-2.8v-8.4c0-1.5,1.3-2.8,2.8-2.8h8.4c1.5,0,2.8,1.3,2.8,2.8v8.4 C32,32.7,30.7,34,29.2,34z"/><path fill="#e1ebf2" d="M25 24A3 3 0 1 0 25 30A3 3 0 1 0 25 24Z"/><path fill="#f75252" d="M11 44A3 3 0 1 0 11 50A3 3 0 1 0 11 44Z"/><path fill="#66798f" d="M11,50c0,0-0.1,0-0.1,0c0.1,0.3,0.2,0.7,0.3,1c2.1-0.1,3.9-1.8,3.9-4c0-2.2-1.8-4-4-4 c-0.3,0-0.7,0.1-1,0.1c0,0.3,0,0.7,0,1c0.3-0.1,0.6-0.2,0.9-0.2c1.7,0,3,1.3,3,3S12.7,50,11,50z"/></svg>