<?xml version="1.0" encoding="iso-8859-1"?>
<!-- Generator: Adobe Illustrator 19.0.0, SVG Export Plug-In . SVG Version: 6.00 Build 0)  -->
<svg version="1.1" id="Layer_1" xmlns="http://www.w3.org/2000/svg" xmlns:xlink="http://www.w3.org/1999/xlink" x="0px" y="0px"
	 viewBox="0 0 500.086 500.086" style="enable-background:new 0 0 500.086 500.086;" xml:space="preserve">
<path style="fill:#E3FCF7;" d="M418.043,450.043v-292.8c0-76.8-61.6-139.2-138.4-139.2h-60c-76,0-137.6,62.4-137.6,139.2v292.8
	H418.043z"/>
<path style="fill:#B7F7F7;" d="M279.643,18.043h-60c-15.2,0-25.6,2.4-41.6,6.4v425.6h240v-292.8
	C418.043,80.443,355.643,18.043,279.643,18.043z"/>
<g>
	<path style="fill:#97E7EF;" d="M418.043,450.043v-292.8c0-76.8-62.4-139.2-138.4-139.2h-60c-15.2,0-28,2.4-41.6,6.4"/>
	<path style="fill:#97E7EF;" d="M341.243,188.443c0,51.2-41.6,92-92,92c-51.2,0-92-41.6-92-92c0-51.2,41.6-92,92-92
		C300.443,96.443,341.243,138.043,341.243,188.443z"/>
</g>
<g>
	<path style="fill:#6CC4D8;" d="M306.043,286.843c0,30.4-25.6,55.2-56,55.2l0,0c-30.4,0-56-24.8-56-55.2v-108
		c0-30.4,25.6-55.2,56-55.2l0,0c30.4,0,56,24.8,56,55.2V286.843z"/>
	<rect x="226.043" y="170.043" style="fill:#6CC4D8;" width="48" height="280"/>
</g>
<path style="fill:#00233F;" d="M370.043,174.043c0,20-16,36-36,36h-176c-20,0-36-16-36-36l0,0c0-20,16-36,36-36h176
	C354.043,138.043,370.043,154.043,370.043,174.043L370.043,174.043z"/>
<path style="fill:#0B6382;" d="M370.043,174.043c0,20-16,36-36,36h-176c-20,0-36-16-36-36l0,0c0-20,16-36,36-36h176
	C354.043,138.043,370.043,154.043,370.043,174.043L370.043,174.043z"/>
<path style="fill:#00233F;" d="M337.243,146.043h-176c-18.4,0-39.2,8.8-39.2,28c0,18.4,13.6,36,39.2,36h176
	c18.4,0,32.8-15.2,32.8-33.6S356.443,146.043,337.243,146.043z"/>
<path style="fill:#0B6382;" d="M341.243,167.643c0,51.2-41.6,92-92,92c-51.2,0-92-41.6-92-92c0-51.2,41.6-92,92-92
	C300.443,75.643,341.243,116.443,341.243,167.643z"/>
<path style="fill:#00233F;" d="M184.443,102.843c36-36,94.4-36,130.4,0s36,94.4,0,130.4"/>
<path style="fill:#13D1BA;" d="M313.243,167.643c0,35.2-28,63.2-63.2,63.2s-63.2-28-63.2-63.2s28.8-63.2,63.2-63.2
	C284.443,104.443,313.243,132.443,313.243,167.643z"/>
<path style="fill:#0FAAA6;" d="M249.243,104.443c35.2,0,63.2,28,63.2,63.2s-28,63.2-63.2,63.2"/>
<g style="opacity:0.6;">
	<path style="fill:#13D1BA;" d="M220.443,138.843c16-16,41.6-16,57.6,0s16,41.6,0,57.6s-41.6,16-57.6,0
		S204.443,154.843,220.443,138.843z"/>
	<path style="fill:#0FAAA6;" d="M220.443,196.443c-16-16-16-41.6,0-57.6s41.6-16,57.6,0"/>
</g>
<g style="opacity:0.6;">
	<path style="fill:#13D1BA;" d="M220.443,196.443c-16-16-16-41.6,0-57.6s41.6-16,57.6,0s16,41.6,0,57.6
		S236.443,212.443,220.443,196.443z"/>
	<path style="fill:#0FAAA6;" d="M278.043,196.443c-16,16-41.6,16-57.6,0s-16-41.6,0-57.6"/>
</g>
<g>
	<path style="fill:#F0FFFD;" d="M246.043,150.843c0,7.2-5.6,13.6-13.6,13.6c-7.2,0-13.6-5.6-13.6-13.6s7.2-12.8,14.4-12.8
		S246.043,143.643,246.043,150.843z"/>
	<path style="fill:#F0FFFD;" d="M262.843,176.443c0,0.8-0.8,1.6-1.6,1.6c-0.8,0-1.6-0.8-1.6-1.6s0.8-1.6,1.6-1.6
		C262.043,174.043,262.843,175.643,262.843,176.443z"/>
	<path style="fill:#F0FFFD;" d="M277.243,189.243c0,3.2-2.4,5.6-5.6,5.6s-5.6-2.4-5.6-5.6c0-3.2,2.4-5.6,5.6-5.6
		C274.843,183.643,277.243,186.043,277.243,189.243z"/>
</g>
<g>
	<path style="fill:#F2F4DC;" d="M240.443,91.643c0,1.6-0.8,2.4-2.4,2.4c-1.6,0-2.4-0.8-2.4-2.4s0.8-2.4,2.4-2.4
		C239.643,89.243,240.443,90.843,240.443,91.643z"/>
	<path style="fill:#F2F4DC;" d="M251.643,91.643c0,1.6-0.8,2.4-2.4,2.4s-2.4-0.8-2.4-2.4s0.8-2.4,2.4-2.4
		C250.843,89.243,251.643,90.843,251.643,91.643z"/>
	<path style="fill:#F2F4DC;" d="M263.643,91.643c0,1.6-0.8,2.4-2.4,2.4s-2.4-0.8-2.4-2.4s0.8-2.4,2.4-2.4
		C262.043,89.243,263.643,90.843,263.643,91.643z"/>
	<path style="fill:#F2F4DC;" d="M240.443,249.243c0,1.6-0.8,2.4-2.4,2.4c-1.6,0-2.4-0.8-2.4-2.4s0.8-2.4,2.4-2.4
		C239.643,246.843,240.443,248.443,240.443,249.243z"/>
	<circle style="fill:#F2F4DC;" cx="249.243" cy="249.243" r="2.4"/>
	<circle style="fill:#F2F4DC;" cx="261.243" cy="249.243" r="2.4"/>
</g>
<path style="fill:#F9A5AF;" d="M494.843,458.043c0,14.4,12.8,24-1.6,24H6.843c-14.4,0-1.6-9.6-1.6-24l0,0c0-14.4,11.2-24,25.6-24
	h438.4C482.843,434.043,494.843,443.643,494.843,458.043L494.843,458.043z"/>
<path style="fill:#EA8B9B;" d="M494.043,458.043h-488c0,0,0-0.8,0,0c0,14.4-12.8,24,1.6,24h486.4
	C506.843,482.043,494.843,472.443,494.043,458.043C494.843,457.243,494.043,458.043,494.043,458.043z"/>
<g>
	<path style="fill:#E3FCF7;" d="M138.043,454.043c0,2.4-1.6,4-4,4h-32c-2.4,0-4-1.6-4-4l0,0c0-2.4,1.6-4,4-4h32
		C136.443,450.043,138.043,451.643,138.043,454.043L138.043,454.043z"/>
	<circle style="fill:#E3FCF7;" cx="370.043" cy="453.243" r="6.4"/>
	<circle style="fill:#E3FCF7;" cx="394.843" cy="453.243" r="6.4"/>
</g>
<path style="fill:#960E08;" d="M137.243,330.043c3.2,24,52.8,60.8,112.8,60.8s108.8-36.8,112.8-60.8H137.243z"/>
<path style="fill:#770606;" d="M250.043,390.843c60,0,109.6-36.8,112.8-60.8h-112.8"/>
<path style="fill:#CE1906;" d="M285.243,289.243c-14.4,0-25.6,4-35.2,10.4c-8.8-6.4-20.8-10.4-35.2-10.4
	c-30.4,0-64.8,16.8-77.6,40.8h92h42.4h92C349.243,306.043,315.643,289.243,285.243,289.243z"/>
<path style="fill:#B51104;" d="M274.043,330.043h88.8c-13.6-24-47.2-40.8-77.6-40.8c-14.4,0-24.8,4-33.6,10.4"/>
<path style="fill:#E55145;" d="M205.243,294.843c2.4,2.4-4.8,8-15.2,12.8c-11.2,4.8-21.6,7.2-24.8,4.8c-2.4-2.4,4.8-8,15.2-12.8
	C192.443,294.843,202.843,292.443,205.243,294.843z"/>
<path style="fill:#CE1906;" d="M166.043,346.843c4-2.4,16,2.4,27.2,9.6c11.2,8,16.8,16,12.8,18.4s-16-2.4-27.2-9.6
	C168.443,358.043,162.043,349.243,166.043,346.843z"/>
<path style="fill:#540200;" d="M292.443,330.043c-4.8-8-17.6-8-29.6-8c-5.6,0-9.6,0.8-13.6,2.4c-3.2-1.6-8-2.4-13.6-2.4
	c-12,0-24,0-29.6,8l0,0c1.6,8,20,12.8,42.4,12.8C272.443,342.843,290.843,338.043,292.443,330.043L292.443,330.043z"/>
<g>
	<path style="fill:#0B6382;" d="M253.243,54.043c0,2.4-1.6,4-4,4l0,0c-2.4,0-4-1.6-4-4v-24c0-2.4,1.6-4,4-4l0,0c2.4,0,4,1.6,4,4
		V54.043z"/>
	<path style="fill:#0B6382;" d="M206.043,74.043c1.6,1.6,1.6,4,0,5.6l0,0c-1.6,1.6-4,1.6-5.6,0l-19.2-19.2c-1.6-1.6-1.6-4,0-5.6l0,0
		c1.6-1.6,4-1.6,5.6,0L206.043,74.043z"/>
	<path style="fill:#0B6382;" d="M226.843,62.043c0.8,2.4-0.8,4-2.4,4.8l0,0c-2.4,0.8-4-0.8-4.8-2.4l-8-25.6c-0.8-2.4,0.8-4,2.4-4.8
		l0,0c2.4-0.8,4,0.8,4.8,2.4L226.843,62.043z"/>
	<path style="fill:#0B6382;" d="M294.043,74.043c-1.6,1.6-1.6,4,0,5.6l0,0c1.6,1.6,4,1.6,5.6,0l19.2-19.2c1.6-1.6,1.6-4,0-5.6l0,0
		c-1.6-1.6-4-1.6-5.6,0L294.043,74.043z"/>
	<path style="fill:#0B6382;" d="M273.243,62.043c-0.8,2.4,0.8,4,2.4,4.8l0,0c2.4,0.8,4-0.8,4.8-2.4l8-25.6c0.8-2.4-0.8-4-2.4-4.8
		l0,0c-2.4-0.8-4,0.8-4.8,2.4L273.243,62.043z"/>
</g>
<g>
</g>
<g>
</g>
<g>
</g>
<g>
</g>
<g>
</g>
<g>
</g>
<g>
</g>
<g>
</g>
<g>
</g>
<g>
</g>
<g>
</g>
<g>
</g>
<g>
</g>
<g>
</g>
<g>
</g>
</svg>
