<?xml version="1.0" encoding="iso-8859-1"?>
<!-- Generator: Adobe Illustrator 19.0.0, SVG Export Plug-In . SVG Version: 6.00 Build 0)  -->
<svg version="1.1" id="Layer_1" xmlns="http://www.w3.org/2000/svg" xmlns:xlink="http://www.w3.org/1999/xlink" x="0px" y="0px"
	 viewBox="0 0 498.4 498.4" style="enable-background:new 0 0 498.4 498.4;" xml:space="preserve">
<path style="fill:#42B506;" d="M175.6,214.4c0,30.4-0.8,52-31.2,52h-60c-30.4,0-55.2-21.6-55.2-52l0,0c0-30.4,24.8-52,55.2-52h36
	C150.8,162.4,175.6,184,175.6,214.4L175.6,214.4z"/>
<path style="fill:#2CA00B;" d="M175.6,212.8L175.6,212.8c0,30.4-0.8,53.6-31.2,53.6h-60c-30.4,0-55.2-24-55.2-54.4l0,0"/>
<path style="fill:#42B506;" d="M322.8,214.4c0,30.4,0.8,52,31.2,52h60c30.4,0,55.2-21.6,55.2-52l0,0c0-30.4-24.8-52-55.2-52h-36
	C347.6,162.4,322.8,184,322.8,214.4L322.8,214.4z"/>
<path style="fill:#2CA00B;" d="M322.8,212.8L322.8,212.8c0,30.4,0.8,53.6,31.2,53.6h60c30.4,0,55.2-24,55.2-54.4l0,0"/>
<path style="fill:#42B506;" d="M465.2,498.4c-8.8-104-102.4-196.8-216-196.8S42,394.4,33.2,498.4H465.2z"/>
<path style="fill:#1C8E00;" d="M465.2,498.4c-8.8-104-102.4-167.2-216-167.2S42,394.4,33.2,498.4H465.2z"/>
<path style="fill:#2CA00B;" d="M376.4,345.6c-36-25.6-80-40.8-127.2-40.8c-48,0-91.2,15.2-127.2,40.8c22.4,48,71.2,82.4,127.2,82.4
	S354,393.6,376.4,345.6z"/>
<path style="fill:#EAD11B;" d="M257.2,480.8c0,3.2-4.8,5.6-8,5.6l0,0c-3.2,0-8-2.4-8-5.6V380c0-3.2,4.8-5.6,8-5.6l0,0
	c3.2,0,8,2.4,8,5.6V480.8z"/>
<g>
	<circle style="fill:#42B506;" cx="134" cy="415.2" r="4.8"/>
	<circle style="fill:#42B506;" cx="155.6" cy="415.2" r="4.8"/>
	<circle style="fill:#42B506;" cx="178" cy="415.2" r="4.8"/>
	<path style="fill:#42B506;" d="M204.4,415.2c0,2.4-2.4,4.8-4.8,4.8c-2.4,0-4.8-2.4-4.8-4.8s2.4-4.8,4.8-4.8
		C202.8,411.2,204.4,412.8,204.4,415.2z"/>
	<circle style="fill:#42B506;" cx="134" cy="434.4" r="4.8"/>
	<circle style="fill:#42B506;" cx="155.6" cy="434.4" r="4.8"/>
	<circle style="fill:#42B506;" cx="178" cy="434.4" r="4.8"/>
	<path style="fill:#42B506;" d="M204.4,434.4c0,2.4-2.4,4.8-4.8,4.8c-2.4,0-4.8-2.4-4.8-4.8s2.4-4.8,4.8-4.8
		C202.8,429.6,204.4,432,204.4,434.4z"/>
	<circle style="fill:#42B506;" cx="134" cy="453.6" r="4.8"/>
	<circle style="fill:#42B506;" cx="155.6" cy="453.6" r="4.8"/>
	<circle style="fill:#42B506;" cx="178" cy="453.6" r="4.8"/>
	<path style="fill:#42B506;" d="M204.4,453.6c0,2.4-2.4,4.8-4.8,4.8c-2.4,0-4.8-2.4-4.8-4.8s2.4-4.8,4.8-4.8
		C202.8,448.8,204.4,451.2,204.4,453.6z"/>
	<circle style="fill:#42B506;" cx="298.8" cy="415.2" r="4.8"/>
	<circle style="fill:#42B506;" cx="320.4" cy="415.2" r="4.8"/>
	<circle style="fill:#42B506;" cx="342.8" cy="415.2" r="4.8"/>
	<circle style="fill:#42B506;" cx="364.4" cy="415.2" r="4.8"/>
	<circle style="fill:#42B506;" cx="298.8" cy="434.4" r="4.8"/>
	<circle style="fill:#42B506;" cx="320.4" cy="434.4" r="4.8"/>
	<circle style="fill:#42B506;" cx="342.8" cy="434.4" r="4.8"/>
	<circle style="fill:#42B506;" cx="364.4" cy="434.4" r="4.8"/>
	<circle style="fill:#42B506;" cx="298.8" cy="453.6" r="4.8"/>
	<circle style="fill:#42B506;" cx="320.4" cy="453.6" r="4.8"/>
	<circle style="fill:#42B506;" cx="342.8" cy="453.6" r="4.8"/>
	<circle style="fill:#42B506;" cx="364.4" cy="453.6" r="4.8"/>
</g>
<path style="fill:#7FD313;" d="M249.2,0C326.8,0,390,6.4,390,144.8s-63.2,250.4-140.8,250.4s-140.8-112-140.8-250.4
	C108.4,6.4,171.6,0,249.2,0z"/>
<path style="fill:#6ACE09;" d="M108.4,144.8C108.4,6.4,171.6,0,249.2,0S390,6.4,390,144.8s-63.2,250.4-140.8,250.4"/>
<path style="fill:#42B506;" d="M249.2,0C326.8,0,390,6.4,390,144.8s-63.2,250.4-140.8,250.4"/>
<path style="opacity:0.3;fill:#727272;enable-background:new    ;" d="M208.4,234.4c0,12-9.6,28-21.6,28s-21.6-16-21.6-28
	s9.6-21.6,21.6-21.6C198.8,212.8,208.4,222.4,208.4,234.4z"/>
<circle style="fill:#023954;" cx="186" cy="234.4" r="21.6"/>
<path style="fill:#00233F;" d="M186,212.8c12,0,21.6,9.6,21.6,21.6S198,256,186,256"/>
<path style="fill:#C5EFFF;" d="M186.8,225.6c0,3.2-2.4,6.4-6.4,6.4c-3.2,0-6.4-2.4-6.4-6.4c0-3.2,2.4-6.4,6.4-6.4
	C184.4,220,186.8,222.4,186.8,225.6z"/>
<circle style="fill:#087CA0;" cx="194" cy="242.4" r="3.2"/>
<path style="fill:#00233F;" d="M201.2,103.2c0,1.6-1.6,3.2-3.2,3.2h-25.6c-1.6,0-3.2-1.6-3.2-3.2v-1.6c0-1.6,1.6-3.2,3.2-3.2H198
	c1.6,0,3.2,1.6,3.2,3.2V103.2z"/>
<path style="opacity:0.3;fill:#727272;enable-background:new    ;" d="M334,234.4c0,12-9.6,28-21.6,28s-21.6-16-21.6-28
	s9.6-21.6,21.6-21.6C324.4,212.8,334,222.4,334,234.4z"/>
<circle style="fill:#023954;" cx="312.4" cy="234.4" r="21.6"/>
<path style="fill:#00233F;" d="M312.4,212.8c12,0,21.6,9.6,21.6,21.6s-9.6,21.6-21.6,21.6"/>
<circle style="fill:#C5EFFF;" cx="306.8" cy="225.6" r="6.4"/>
<circle style="fill:#087CA0;" cx="319.6" cy="242.4" r="3.2"/>
<path style="fill:#00233F;" d="M330,102.4c0,1.6-1.6,4-3.2,4h-29.6c-1.6,0-3.2-2.4-3.2-4l0,0c0-1.6,1.6-4,3.2-4h29.6
	C328.4,98.4,330,100.8,330,102.4L330,102.4z"/>
<g>
	<path style="opacity:0.3;fill:#727272;enable-background:new    ;" d="M265.2,319.2c0,4.8-3.2,19.2-8,19.2h-16
		c-4.8,0-8-15.2-8-19.2V296c0-4.8,3.2-4.8,8-4.8h16c4.8,0,8,0.8,8,4.8V319.2z"/>
	<path style="opacity:0.3;fill:#727272;enable-background:new    ;" d="M265.2,309.6c0,4.8-3.2,4.8-8,4.8h-16c-4.8,0-8,0-8-4.8
		v-23.2c0-4.8,3.2-12,8-12h16c4.8,0,8,7.2,8,12V309.6z"/>
</g>
<rect x="242.582" y="41.225" transform="matrix(-0.7068 0.7074 -0.7074 -0.7068 457.6883 -95.2447)" style="fill:#EAD11B;" width="12" height="12"/>
<polyline style="fill:#FFF594;" points="249.2,38.4 258,47.2 249.2,56 "/>
<rect x="242.604" y="57.231" transform="matrix(-0.7071 0.7071 -0.7071 -0.7071 469.1052 -67.848)" style="fill:#EAD11B;" width="12" height="12"/>
<polyline style="fill:#FFF594;" points="249.2,54.4 258,63.2 249.2,72 "/>
<rect x="242.638" y="73.193" transform="matrix(-0.7071 0.7071 -0.7071 -0.7071 480.4491 -40.6236)" style="fill:#EAD11B;" width="12" height="12"/>
<polyline style="fill:#FFF594;" points="249.2,70.4 258,79.2 249.2,88 "/>
<g>
	
		<ellipse transform="matrix(-0.2645 -0.9644 0.9644 -0.2645 200.7086 218.4977)" style="fill:#97E842;" cx="183.675" cy="32.712" rx="17.6" ry="44.001"/>
	<ellipse style="fill:#97E842;" cx="136.4" cy="62.4" rx="5.6" ry="4"/>
	<circle style="fill:#97E842;" cx="130" cy="82.4" r="4.8"/>
	<circle style="fill:#97E842;" cx="126.8" cy="98.4" r="1.6"/>
	<circle style="fill:#97E842;" cx="238" cy="20.8" r="2.4"/>
</g>
<g>
	<rect x="57.2" y="194.4" style="fill:#EAD11B;" width="8" height="40"/>
	<rect x="73.2" y="194.4" style="fill:#EAD11B;" width="8" height="40"/>
	<rect x="89.2" y="194.4" style="fill:#EAD11B;" width="8" height="40"/>
	<rect x="401.2" y="194.4" style="fill:#EAD11B;" width="8" height="40"/>
	<rect x="417.2" y="194.4" style="fill:#EAD11B;" width="8" height="40"/>
	<rect x="433.2" y="194.4" style="fill:#EAD11B;" width="8" height="40"/>
</g>
<g>
	<path style="fill:#2CA00B;" d="M105.2,465.6c0,8-8,14.4-16,14.4l0,0c-8,0-16-6.4-16-14.4v-28.8c0-8,8-14.4,16-14.4l0,0
		c8,0,16,6.4,16,14.4V465.6z"/>
	<path style="fill:#2CA00B;" d="M425.2,465.6c0,8-8,14.4-16,14.4l0,0c-8,0-16-6.4-16-14.4v-28.8c0-8,8-14.4,16-14.4l0,0
		c8,0,16,6.4,16,14.4V465.6z"/>
</g>
<g>
</g>
<g>
</g>
<g>
</g>
<g>
</g>
<g>
</g>
<g>
</g>
<g>
</g>
<g>
</g>
<g>
</g>
<g>
</g>
<g>
</g>
<g>
</g>
<g>
</g>
<g>
</g>
<g>
</g>
</svg>
