<?xml version="1.0" encoding="iso-8859-1"?>
<!-- Generator: Adobe Illustrator 19.0.0, SVG Export Plug-In . SVG Version: 6.00 Build 0)  -->
<svg version="1.1" id="Layer_1" xmlns="http://www.w3.org/2000/svg" xmlns:xlink="http://www.w3.org/1999/xlink" x="0px" y="0px"
	 viewBox="0 0 500.8 500.8" style="enable-background:new 0 0 500.8 500.8;" xml:space="preserve">
<path style="fill:#004472;" d="M74.4,216c0-35.2,60-197.6,104-197.6H320c44,0,106.4,162.4,106.4,197.6v49.6
	c0,36-38.4,64.8-82.4,96.8H156.8c-44-32-82.4-60.8-82.4-96.8V216z"/>
<path style="fill:#00233F;" d="M178.4,18.4H320c44,0,106.4,162.4,106.4,197.6v49.6c0,36-38.4,64.8-82.4,96.8H154.4"/>
<path style="fill:#004472;" d="M500.8,482.4c-15.2-80-121.6-64-250.4-64s-235.2-16-250.4,64H500.8z"/>
<path style="fill:#00233F;" d="M340,140.8c0,24-40,84.8-89.6,84.8s-89.6-61.6-89.6-84.8c0-24,40-23.2,89.6-23.2S340,116.8,340,140.8
	z"/>
<path style="fill:#004472;" d="M162.4,447.2c0,8-8,11.2-19.2,11.2h-16.8c-11.2,0-63.2-6.4-63.2-13.6l40.8-54.4
	c0-8,11.2-11.2,22.4-11.2h16.8c11.2,0,19.2,4,19.2,12V447.2z"/>
<path style="fill:#00233F;" d="M103.2,389.6c0-8,11.2-11.2,22.4-11.2h16.8c11.2,0,19.2,4,19.2,12v56.8c0,8-8,11.2-19.2,11.2h-20"/>
<path style="fill:#004472;" d="M338.4,447.2c0,8,6.4,11.2,17.6,11.2h16.8c11.2,0,60.8-4.8,60.8-12.8l-40-55.2c0-8-9.6-12-20.8-12
	H356c-11.2,0-17.6,4-17.6,12V447.2z"/>
<path style="fill:#00233F;" d="M393.6,390.4c0-8-9.6-12-20.8-12H356c-11.2,0-17.6,4-17.6,12v56.8c0,8,6.4,11.2,17.6,11.2h14.4"/>
<g>
	<path style="fill:#306582;" d="M274.4,238.4c0-2.4-1.6-4-4-4h-48c-2.4,0-4,1.6-4,4l0,0c0,2.4,1.6,4,4,4h48
		C272.8,242.4,274.4,240.8,274.4,238.4L274.4,238.4z"/>
	<path style="fill:#306582;" d="M274.4,254.4c0-2.4-1.6-4-4-4h-48c-2.4,0-4,1.6-4,4l0,0c0,2.4,1.6,4,4,4h48
		C272.8,258.4,274.4,256.8,274.4,254.4L274.4,254.4z"/>
	<path style="fill:#306582;" d="M274.4,270.4c0-2.4-1.6-4-4-4h-48c-2.4,0-4,1.6-4,4l0,0c0,2.4,1.6,4,4,4h48
		C272.8,274.4,274.4,272.8,274.4,270.4L274.4,270.4z"/>
	<circle style="fill:#306582;" cx="203.2" cy="336" r="6.4"/>
	<circle style="fill:#306582;" cx="234.4" cy="336" r="6.4"/>
	<circle style="fill:#306582;" cx="266.4" cy="336" r="6.4"/>
	<circle style="fill:#306582;" cx="297.6" cy="336" r="6.4"/>
</g>
<path style="fill:#F7B93C;" d="M330.4,49.6V23.2c0-2.4-6.4-4.8-10.4-4.8H180.8c-4,0-12.8,2.4-12.8,2.4v28l82.4,48L330.4,49.6z"/>
<path style="fill:#CC7211;" d="M250.4,96.8l80-47.2v-28c0,0-4.8-3.2-10.4-3.2H180.8c-4,0-8.8,0-12.8,2.4"/>
<path style="fill:#00233F;" d="M15.2,450.4c-7.2,8-12,24-15.2,32h500.8c-2.4-8-8-24-15.2-32H15.2z"/>
<path style="fill:#EA382A;" d="M340,137.6c0,24-40,43.2-89.6,43.2s-89.6-19.2-89.6-43.2s40-23.2,89.6-23.2S340,113.6,340,137.6z"/>
<path style="fill:#CE1906;" d="M340,137.6c0,24-40,43.2-89.6,43.2s-89.6-19.2-89.6-43.2"/>
<circle style="fill:#004472;" cx="250.4" cy="147.2" r="25.6"/>
<path style="fill:#00233F;" d="M250.4,173.6c-14.4,0-25.6-12-25.6-25.6s12-25.6,25.6-25.6"/>
<path style="fill:#CE1906;" d="M323.2,394.4c0,9.6,0,16-9.6,16H187.2c-9.6,0-9.6-6.4-9.6-16l0,0c0-9.6,8-16,17.6-16h110.4
	C315.2,378.4,323.2,384.8,323.2,394.4L323.2,394.4z"/>
<path style="fill:#770606;" d="M323.2,394.4L323.2,394.4c0,9.6,0,16-9.6,16H187.2c-9.6,0-9.6-6.4-9.6-16l0,0"/>
<g>
</g>
<g>
</g>
<g>
</g>
<g>
</g>
<g>
</g>
<g>
</g>
<g>
</g>
<g>
</g>
<g>
</g>
<g>
</g>
<g>
</g>
<g>
</g>
<g>
</g>
<g>
</g>
<g>
</g>
</svg>
