<?xml version="1.0" encoding="iso-8859-1"?>
<!-- Generator: Adobe Illustrator 19.0.0, SVG Export Plug-In . SVG Version: 6.00 Build 0)  -->
<svg version="1.1" id="Layer_1" xmlns="http://www.w3.org/2000/svg" xmlns:xlink="http://www.w3.org/1999/xlink" x="0px" y="0px"
	 viewBox="0 0 497.6 497.6" style="enable-background:new 0 0 497.6 497.6;" xml:space="preserve">
<g>
	<path style="fill:#6ACE09;" d="M252.8,28c0,2.4-1.6,4-4,4l0,0c-2.4,0-4-1.6-4-4V4c0-2.4,1.6-4,4-4l0,0c2.4,0,4,1.6,4,4V28z"/>
	<path style="fill:#6ACE09;" d="M488.8,497.6c-3.2-24-27.2-48-56-48h-368c-28.8,0-52,24-56,48H488.8z"/>
</g>
<path style="fill:#2FB20B;" d="M488.8,497.6c-3.2-28-27.2-48-56-48h-368"/>
<circle style="fill:#81E815;" cx="182.4" cy="220" r="29.6"/>
<path style="fill:#2FB20B;" d="M211.2,220c0,16-12.8,29.6-29.6,29.6c-16,0-29.6-12.8-29.6-29.6"/>
<path style="fill:#BDFF4A;" d="M173.6,207.2c0,0.8-0.8,1.6-1.6,1.6h-5.6c-0.8,0-1.6-0.8-1.6-1.6l0,0c0-0.8,0.8-1.6,1.6-1.6h5.6
	C172.8,205.6,173.6,206.4,173.6,207.2L173.6,207.2z"/>
<path style="fill:#81E815;" d="M173.6,232.8c0,0.8-0.8,1.6-1.6,1.6h-5.6c-0.8,0-1.6-0.8-1.6-1.6l0,0c0-0.8,0.8-1.6,1.6-1.6h5.6
	C172.8,231.2,173.6,232,173.6,232.8L173.6,232.8z"/>
<path style="fill:#BDFF4A;" d="M173.6,214.4c0,0.8-0.8,1.6-1.6,1.6h-5.6c-0.8,0-1.6-0.8-1.6-1.6l0,0c0-0.8,0.8-1.6,1.6-1.6h5.6
	C172.8,213.6,173.6,213.6,173.6,214.4L173.6,214.4z"/>
<circle style="fill:#81E815;" cx="315.2" cy="220" r="29.6"/>
<path style="fill:#2FB20B;" d="M286.4,220c0,16,12.8,29.6,29.6,29.6c16,0,29.6-12.8,29.6-29.6"/>
<path style="fill:#BDFF4A;" d="M324,207.2c0,0.8,0.8,1.6,1.6,1.6h5.6c0.8,0,1.6-0.8,1.6-1.6l0,0c0-0.8-0.8-1.6-1.6-1.6h-5.6
	C324.8,205.6,324,206.4,324,207.2L324,207.2z"/>
<path style="fill:#81E815;" d="M324,232.8c0,0.8,0.8,1.6,1.6,1.6h5.6c0.8,0,1.6-0.8,1.6-1.6l0,0c0-0.8-0.8-1.6-1.6-1.6h-5.6
	C324.8,231.2,324,232,324,232.8L324,232.8z"/>
<path style="fill:#BDFF4A;" d="M324,214.4c0,0.8,0.8,1.6,1.6,1.6h5.6c0.8,0,1.6-0.8,1.6-1.6l0,0c0-0.8-0.8-1.6-1.6-1.6h-5.6
	C324.8,213.6,324,213.6,324,214.4L324,214.4z"/>
<circle style="fill:#81E815;" cx="182.4" cy="174.4" r="29.6"/>
<path style="fill:#2FB20B;" d="M211.2,174.4c0,16-12.8,29.6-29.6,29.6c-16,0-29.6-12.8-29.6-29.6"/>
<path style="fill:#BDFF4A;" d="M173.6,161.6c0,0.8-0.8,1.6-1.6,1.6h-5.6c-0.8,0-1.6-0.8-1.6-1.6l0,0c0-0.8,0.8-1.6,1.6-1.6h5.6
	C172.8,160,173.6,160.8,173.6,161.6L173.6,161.6z"/>
<path style="fill:#81E815;" d="M173.6,186.4c0,0.8-0.8,1.6-1.6,1.6h-5.6c-0.8,0-1.6-0.8-1.6-1.6l0,0c0-0.8,0.8-1.6,1.6-1.6h5.6
	C172.8,185.6,173.6,186.4,173.6,186.4L173.6,186.4z"/>
<path style="fill:#BDFF4A;" d="M173.6,168.8c0,0.8-0.8,1.6-1.6,1.6h-5.6c-0.8,0-1.6-0.8-1.6-1.6l0,0c0-0.8,0.8-1.6,1.6-1.6h5.6
	C172.8,168,173.6,168,173.6,168.8L173.6,168.8z"/>
<circle style="fill:#81E815;" cx="315.2" cy="174.4" r="29.6"/>
<path style="fill:#2FB20B;" d="M286.4,174.4c0,16,12.8,29.6,29.6,29.6c16,0,29.6-12.8,29.6-29.6"/>
<path style="fill:#BDFF4A;" d="M324,161.6c0,0.8,0.8,1.6,1.6,1.6h5.6c0.8,0,1.6-0.8,1.6-1.6l0,0c0-0.8-0.8-1.6-1.6-1.6h-5.6
	C324.8,160,324,160.8,324,161.6L324,161.6z"/>
<path style="fill:#81E815;" d="M324,186.4c0,0.8,0.8,1.6,1.6,1.6h5.6c0.8,0,1.6-0.8,1.6-1.6l0,0c0-0.8-0.8-1.6-1.6-1.6h-5.6
	C324.8,185.6,324,186.4,324,186.4L324,186.4z"/>
<path style="fill:#BDFF4A;" d="M324,168.8c0,0.8,0.8,1.6,1.6,1.6h5.6c0.8,0,1.6-0.8,1.6-1.6l0,0c0-0.8-0.8-1.6-1.6-1.6h-5.6
	C324.8,168,324,168,324,168.8L324,168.8z"/>
<circle style="fill:#81E815;" cx="182.4" cy="128.8" r="29.6"/>
<path style="fill:#2FB20B;" d="M211.2,128.8c0,16-12.8,29.6-29.6,29.6c-16,0-29.6-12.8-29.6-29.6"/>
<path style="fill:#BDFF4A;" d="M173.6,116c0,0.8-0.8,1.6-1.6,1.6h-5.6c-0.8,0-1.6-0.8-1.6-1.6l0,0c0-0.8,0.8-1.6,1.6-1.6h5.6
	C172.8,114.4,173.6,115.2,173.6,116L173.6,116z"/>
<path style="fill:#81E815;" d="M173.6,140.8c0,0.8-0.8,1.6-1.6,1.6h-5.6c-0.8,0-1.6-0.8-1.6-1.6l0,0c0-0.8,0.8-1.6,1.6-1.6h5.6
	C172.8,140,173.6,140,173.6,140.8L173.6,140.8z"/>
<path style="fill:#BDFF4A;" d="M173.6,123.2c0,0.8-0.8,1.6-1.6,1.6h-5.6c-0.8,0-1.6-0.8-1.6-1.6l0,0c0-0.8,0.8-1.6,1.6-1.6h5.6
	C172.8,121.6,173.6,122.4,173.6,123.2L173.6,123.2z"/>
<circle style="fill:#81E815;" cx="315.2" cy="128.8" r="29.6"/>
<path style="fill:#2FB20B;" d="M286.4,128.8c0,16,12.8,29.6,29.6,29.6c16,0,29.6-12.8,29.6-29.6"/>
<path style="fill:#BDFF4A;" d="M324,116c0,0.8,0.8,1.6,1.6,1.6h5.6c0.8,0,1.6-0.8,1.6-1.6l0,0c0-0.8-0.8-1.6-1.6-1.6h-5.6
	C324.8,114.4,324,115.2,324,116L324,116z"/>
<path style="fill:#81E815;" d="M324,140.8c0,0.8,0.8,1.6,1.6,1.6h5.6c0.8,0,1.6-0.8,1.6-1.6l0,0c0-0.8-0.8-1.6-1.6-1.6h-5.6
	C324.8,140,324,140,324,140.8L324,140.8z"/>
<path style="fill:#BDFF4A;" d="M324,123.2c0,0.8,0.8,1.6,1.6,1.6h5.6c0.8,0,1.6-0.8,1.6-1.6l0,0c0-0.8-0.8-1.6-1.6-1.6h-5.6
	C324.8,121.6,324,122.4,324,123.2L324,123.2z"/>
<path style="fill:#81E815;" d="M320.8,440c0,37.6-34.4,52.8-72,52.8l0,0c-37.6,0-72-14.4-72-52.8V92.8c0-37.6,34.4-68.8,72-68.8l0,0
	c37.6,0,72,30.4,72,68.8V440z"/>
<path style="fill:#6ACE09;" d="M250.4,24L250.4,24c37.6,0,70.4,30.4,70.4,68.8V440c0,37.6-31.2,52.8-69.6,52.8l0,0"/>
<path style="fill:#2FB20B;" d="M296,127.2c0,7.2-10.4,18.4-23.2,18.4h-48c-12.8,0-23.2-11.2-23.2-18.4l0,0
	c0-7.2,10.4-21.6,23.2-21.6h48C285.6,105.6,296,120,296,127.2L296,127.2z"/>
<path style="fill:#F9F4C5;" d="M296,129.6c0,7.2-10.4,16-23.2,16h-48c-12.8,0-23.2-8.8-23.2-16l0,0c0-7.2,10.4-16,23.2-16h48
	C285.6,113.6,296,122.4,296,129.6L296,129.6z"/>
<path style="fill:#E5DD7A;" d="M296,131.2L296,131.2c0,7.2-10.4,14.4-23.2,14.4h-48c-12.8,0-23.2-6.4-23.2-13.6l0,0"/>
<circle style="fill:#10998C;" cx="223.2" cy="128" r="6.4"/>
<circle style="fill:#D7F4EF;" cx="221.6" cy="125.6" r="2.4"/>
<circle style="fill:#10998C;" cx="274.4" cy="128" r="6.4"/>
<circle style="fill:#D7F4EF;" cx="272" cy="125.6" r="2.4"/>
<g>
	
		<ellipse transform="matrix(-0.605 -0.7962 0.7962 -0.605 305.4224 249.5187)" style="fill:#BDFF4A;" cx="214.602" cy="49.002" rx="8.8" ry="25.599"/>
	<circle style="fill:#BDFF4A;" cx="192" cy="77.6" r="3.2"/>
	<circle style="fill:#BDFF4A;" cx="190.4" cy="88.8" r="2.4"/>
	<path style="fill:#BDFF4A;" d="M192.8,208c0,1.6-2.4,3.2-4,3.2l0,0c-1.6,0-4-1.6-4-3.2v-90.4c0-1.6,2.4-3.2,4-3.2l0,0
		c1.6,0,4,1.6,4,3.2V208z"/>
	<path style="fill:#BDFF4A;" d="M192.8,387.2c0,1.6-2.4,3.2-4,3.2l0,0c-1.6,0-4-1.6-4-3.2v-89.6c0-1.6,2.4-3.2,4-3.2l0,0
		c1.6,0,4,1.6,4,3.2V387.2z"/>
</g>
<circle style="fill:#2FB20B;" cx="248.8" cy="45.6" r="4.8"/>
<path style="fill:#EA2D83;" d="M358.4,449.6c0,26.4-5.6,48-32,48H171.2c-26.4,0-32-21.6-32-48l0,0c0-26.4,21.6-48,48.8-48h123.2
	C336.8,401.6,358.4,423.2,358.4,449.6L358.4,449.6z"/>
<path style="fill:#A0007A;" d="M358.4,449.6L358.4,449.6c0,26.4-5.6,48-32,48H171.2c-26.4,0-32-21.6-32-48l0,0"/>
<g>
	<path style="fill:#2FB20B;" d="M220,108.8c0.8,0.8,0.8,2.4,0,3.2l0,0c-0.8,0.8-2.4,0.8-3.2,0l-8-8c-0.8-0.8-0.8-2.4,0-3.2l0,0
		c0.8-0.8,2.4-0.8,3.2,0L220,108.8z"/>
	<path style="fill:#2FB20B;" d="M235.2,108c0,0.8-0.8,2.4-1.6,2.4l0,0c-1.6,0-2.4,0-2.4-1.6L228,95.2c0-0.8,0-2.4,1.6-2.4l0,0
		c0.8,0,2.4,0,2.4,1.6L235.2,108z"/>
	<path style="fill:#2FB20B;" d="M276.8,109.6c-0.8,0.8,0,1.6,0.8,2.4l0,0c0.8,0.8,1.6,1.6,2.4,0.8l8-8c0.8-0.8,0.8-2.4,0-3.2l0,0
		c-0.8-0.8-2.4-0.8-3.2,0L276.8,109.6z"/>
	<path style="fill:#2FB20B;" d="M262.4,108c0,0.8,0.8,2.4,1.6,2.4l0,0c1.6,0,2.4,0,2.4-1.6l3.2-13.6c0-0.8,0-2.4-1.6-2.4l0,0
		c-0.8,0-2.4,0-2.4,1.6L262.4,108z"/>
	<path style="fill:#2FB20B;" d="M248,106.4c0,1.6,0.8,2.4,2.4,2.4l0,0c1.6,0,2.4-0.8,2.4-2.4V92.8c0-1.6-0.8-2.4-2.4-2.4l0,0
		c-1.6,0-2.4,0.8-2.4,2.4L248,106.4z"/>
</g>
<path style="fill:#EA2D83;" d="M264.8,25.6c0,4-3.2,8-6.4,8h-19.2c-4,0-6.4-4-6.4-8l0,0c0-4,3.2-8,6.4-8h19.2
	C262.4,17.6,264.8,21.6,264.8,25.6L264.8,25.6z"/>
<path style="fill:#A0007A;" d="M240.8,17.6h17.6c4,0,6.4,4,6.4,7.2l0,0c0,4-2.4,6.4-5.6,6.4"/>
<g>
	
		<ellipse transform="matrix(-0.5872 -0.8094 0.8094 -0.5872 -76.1241 807.3409)" style="fill:#FF8AC5;" cx="167.796" cy="423.081" rx="8.8" ry="19.999"/>
	<circle style="fill:#FF8AC5;" cx="248.8" cy="452.8" r="14.4"/>
</g>
<g>
	<path style="fill:#2FB20B;" d="M225.6,78.4c0,1.6-0.8,2.4-2.4,2.4H212c-1.6,0-2.4-0.8-2.4-2.4l0,0c0-1.6,0.8-2.4,2.4-2.4h11.2
		C224,75.2,225.6,76.8,225.6,78.4L225.6,78.4z"/>
	<path style="fill:#2FB20B;" d="M288.8,78.4c0,1.6-0.8,2.4-2.4,2.4h-11.2c-1.6,0-2.4-0.8-2.4-2.4l0,0c0-1.6,0.8-2.4,2.4-2.4h11.2
		C288,75.2,288.8,76.8,288.8,78.4L288.8,78.4z"/>
</g>
<path style="fill:#960E08;" d="M203.2,193.6c1.6,16,21.6,36.8,45.6,36.8c24.8,0,44.8-20.8,45.6-36.8H203.2z"/>
<path style="fill:#770606;" d="M248.8,230.4c24.8,0,44.8-20.8,46.4-36.8h-46.4"/>
<path style="fill:#CE1906;" d="M263.2,168.8c-5.6,0-10.4,2.4-14.4,6.4c-4-4-8.8-6.4-14.4-6.4c-12.8,0-26.4,8.8-32,24.8H240h17.6
	h37.6C289.6,177.6,276,168.8,263.2,168.8z"/>
<path style="fill:#B51104;" d="M256.8,193.6h38.4c-5.6-16-19.2-24.8-32-24.8c-5.6,0-11.2,2.4-14.4,5.6"/>
<path style="fill:#E55145;" d="M230.4,172.8c0.8,1.6-1.6,4.8-6.4,8c-4.8,3.2-8.8,4-9.6,3.2c-0.8-1.6,1.6-4.8,6.4-8
	C224.8,172.8,229.6,172,230.4,172.8z"/>
<path style="fill:#CE1906;" d="M214.4,204.8c1.6-1.6,6.4,1.6,11.2,6.4c4.8,4.8,7.2,9.6,5.6,11.2c-1.6,1.6-6.4-1.6-11.2-6.4
	C215.2,211.2,212.8,205.6,214.4,204.8z"/>
<path style="fill:#540200;" d="M266.4,193.6c-2.4,0-7.2-4.8-12-4.8c-2.4,0-4,0.8-5.6,1.6c-1.6-0.8-3.2-1.6-5.6-1.6
	c-4.8,0-9.6,4.8-12,4.8l0,0c0.8,8,8,8,17.6,8C257.6,201.6,265.6,201.6,266.4,193.6L266.4,193.6z"/>
<g>
</g>
<g>
</g>
<g>
</g>
<g>
</g>
<g>
</g>
<g>
</g>
<g>
</g>
<g>
</g>
<g>
</g>
<g>
</g>
<g>
</g>
<g>
</g>
<g>
</g>
<g>
</g>
<g>
</g>
</svg>
