<?xml version="1.0" encoding="iso-8859-1"?>
<!-- Generator: Adobe Illustrator 19.0.0, SVG Export Plug-In . SVG Version: 6.00 Build 0)  -->
<svg version="1.1" id="Layer_1" xmlns="http://www.w3.org/2000/svg" xmlns:xlink="http://www.w3.org/1999/xlink" x="0px" y="0px"
	 viewBox="0 0 502.4 502.4" style="enable-background:new 0 0 502.4 502.4;" xml:space="preserve">
<ellipse style="fill:#F2F2B8;" cx="184" cy="468" rx="45.6" ry="27.2"/>
<path style="fill:#D3D181;" d="M184,440.8c24.8,0,45.6,12,45.6,27.2s-20,27.2-45.6,27.2"/>
<ellipse style="fill:#F2F2B8;" cx="318.4" cy="468" rx="45.6" ry="27.2"/>
<path style="fill:#D3D181;" d="M318.4,440.8c24.8,0,45.6,12,45.6,27.2s-20,27.2-45.6,27.2"/>
<ellipse style="fill:#F2F2B8;" cx="251.2" cy="475.2" rx="45.6" ry="27.2"/>
<path style="fill:#D3D181;" d="M251.2,448c24.8,0,45.6,12,45.6,27.2s-20,27.2-45.6,27.2"/>
<path style="fill:#8DAAB2;" d="M384.8,451.2c0-72-60-132.8-133.6-132.8s-133.6,60.8-133.6,132.8H384.8z"/>
<path style="fill:#6B878E;" d="M115.2,451.2h269.6c0-72-60.8-132.8-134.4-132.8"/>
<rect x="168.164" y="249.062" transform="matrix(-0.7071 0.7071 -0.7071 -0.7071 663.0826 389.0656)" style="fill:#6C498E;" width="165.598" height="165.598"/>
<polyline style="fill:#583B7A;" points="251.2,214.4 368.8,331.2 251.2,448.8 "/>
<polygon style="fill:#A883CC;" points="455.2,116 251.2,415.2 47.2,116 251.2,0 "/>
<g>
	<polygon style="fill:#8860A8;" points="455.2,116 251.2,367.2 47.2,116 251.2,24 	"/>
	<polyline style="fill:#8860A8;" points="251.2,0 455.2,116 251.2,415.2 	"/>
</g>
<polygon style="fill:#6C498E;" points="455.2,116 251.2,24 251.2,367.2 "/>
<polygon style="fill:#583B7A;" points="80,163.2 422.4,163.2 455.2,116 47.2,116 "/>
<polygon style="fill:#F2F2B8;" points="366.4,139.2 136,139.2 120,115.2 382.4,115.2 "/>
<polygon style="fill:#D3D181;" points="131.2,131.2 136,139.2 366.4,139.2 371.2,131.2 "/>
<g>
	<circle style="fill:#583B7A;" cx="251.2" cy="181.6" r="6.4"/>
	<circle style="fill:#583B7A;" cx="251.2" cy="209.6" r="6.4"/>
	<circle style="fill:#583B7A;" cx="251.2" cy="236.8" r="6.4"/>
</g>
<polygon style="fill:#6C498E;" points="185.6,285.6 187.2,179.2 80.8,163.2 "/>
<polygon style="fill:#583B7A;" points="185.6,285.6 158.4,206.4 80.8,163.2 "/>
<polygon style="fill:#8860A8;" points="316.8,286.4 315.2,179.2 420.8,164 "/>
<polygon style="fill:#583B7A;" points="316.8,286.4 344.8,206.4 420.8,164 "/>
<path style="fill:#8DAAB2;" d="M67.2,342.4c0,9.6-3.2,17.6-8,17.6l0,0c-4.8,0-8-8-8-17.6V219.2c0-9.6,3.2-17.6,8-17.6l0,0
	c4.8,0,8,8,8,17.6V342.4z"/>
<path style="fill:#6B878E;" d="M60,202.4L60,202.4c4.8,0,7.2,8,7.2,17.6v122.4c0,9.6-3.2,17.6-8,17.6l0,0"/>
<polygon style="fill:#8860A8;" points="61.6,253.6 16.8,208.8 61.6,163.2 99.2,216 "/>
<polygon style="fill:#6C498E;" points="61.6,253.6 16.8,208.8 61.6,185.6 99.2,216 "/>
<polyline style="fill:#503372;" points="61.6,163.2 99.2,216 61.6,253.6 "/>
<path style="fill:#6C498E;" d="M71.2,414.4c-22.4,0-40.8-18.4-40.8-40.8s18.4-40.8,40.8-40.8"/>
<path style="fill:#8DAAB2;" d="M71.2,393.6c-11.2,0-20-8.8-20-20s8.8-20,20-20"/>
<path style="fill:#6B878E;" d="M71.2,393.6c-11.2,0-20-8.8-20-20"/>
<circle style="fill:#8860A8;" cx="87.2" cy="251.2" r="6.4"/>
<circle style="fill:#503372;" cx="107.2" cy="251.2" r="6.4"/>
<path style="fill:#8DAAB2;" d="M435.2,342.4c0,9.6,3.2,17.6,8,17.6l0,0c4.8,0,8-8,8-17.6V219.2c0-9.6-3.2-17.6-8-17.6l0,0
	c-4.8,0-8,8-8,17.6V342.4z"/>
<path style="fill:#6B878E;" d="M442.4,202.4L442.4,202.4c-4.8,0-7.2,8-7.2,17.6v122.4c0,9.6,3.2,17.6,8,17.6l0,0"/>
<polygon style="fill:#8860A8;" points="440.8,253.6 485.6,208.8 440.8,163.2 403.2,216 "/>
<polygon style="fill:#6C498E;" points="440.8,253.6 485.6,208.8 440.8,185.6 403.2,216 "/>
<polyline style="fill:#503372;" points="440.8,163.2 403.2,216 440.8,253.6 "/>
<path style="fill:#6C498E;" d="M431.2,414.4c22.4,0,40.8-18.4,40.8-40.8s-18.4-40.8-40.8-40.8"/>
<path style="fill:#8DAAB2;" d="M431.2,393.6c11.2,0,20-8.8,20-20s-8.8-20-20-20"/>
<path style="fill:#6B878E;" d="M431.2,393.6c11.2,0,20-8.8,20-20"/>
<circle style="fill:#8860A8;" cx="415.2" cy="251.2" r="6.4"/>
<circle style="fill:#503372;" cx="395.2" cy="251.2" r="6.4"/>
<polygon style="fill:#F2F2B8;" points="267.2,80 251.2,88 235.2,80 235.2,64 251.2,56 267.2,64 "/>
<polyline style="fill:#D3D181;" points="251.2,56 267.2,64 267.2,80 251.2,88 "/>
<path style="fill:#F2F2B8;" d="M255.2,384c0,1.6-1.6,3.2-3.2,3.2h-1.6c-1.6,0-3.2-1.6-3.2-3.2V262.4c0-1.6,1.6-3.2,3.2-3.2h1.6
	c1.6,0,3.2,1.6,3.2,3.2V384z"/>
<path style="fill:#8DAAB2;" d="M403.2,468c0,8-6.4,15.2-15.2,15.2H114.4c-8,0-15.2-6.4-15.2-15.2v-1.6c0-8,6.4-15.2,15.2-15.2H388
	c8,0,15.2,6.4,15.2,15.2V468z"/>
<path style="fill:#6B878E;" d="M403.2,465.6L403.2,465.6c0.8,8.8-6.4,17.6-15.2,17.6H114.4c-8,0-16-7.2-15.2-16.8l0,0"/>
<g>
	<path style="fill:#6C498E;" d="M163.2,427.2c0,0.8-3.2,1.6-4,1.6l0,0c-0.8,0-4-0.8-4-1.6v-24c0-0.8,3.2-1.6,4-1.6l0,0
		c0.8,0,4,0.8,4,1.6V427.2z"/>
	<path style="fill:#6C498E;" d="M179.2,427.2c0,0.8-3.2,1.6-4,1.6l0,0c-0.8,0-4-0.8-4-1.6v-24c0-0.8,3.2-1.6,4-1.6l0,0
		c0.8,0,4,0.8,4,1.6V427.2z"/>
	<path style="fill:#6C498E;" d="M195.2,427.2c0,0.8-3.2,1.6-4,1.6l0,0c-0.8,0-4-0.8-4-1.6v-24c0-0.8,3.2-1.6,4-1.6l0,0
		c0.8,0,4,0.8,4,1.6V427.2z"/>
	<path style="fill:#6C498E;" d="M147.2,427.2c0,0.8-3.2,1.6-4,1.6l0,0c-0.8,0-4-0.8-4-1.6v-24c0-0.8,3.2-1.6,4-1.6l0,0
		c0.8,0,4,0.8,4,1.6V427.2z"/>
	<path style="fill:#6C498E;" d="M331.2,427.2c0,0.8-3.2,1.6-4,1.6l0,0c-0.8,0-4-0.8-4-1.6v-24c0-0.8,3.2-1.6,4-1.6l0,0
		c0.8,0,4,0.8,4,1.6V427.2z"/>
	<path style="fill:#6C498E;" d="M347.2,427.2c0,0.8-3.2,1.6-4,1.6l0,0c-0.8,0-4-0.8-4-1.6v-24c0-0.8,3.2-1.6,4-1.6l0,0
		c0.8,0,4,0.8,4,1.6V427.2z"/>
	<path style="fill:#6C498E;" d="M363.2,427.2c0,0.8-3.2,1.6-4,1.6l0,0c-0.8,0-4-0.8-4-1.6v-24c0-0.8,3.2-1.6,4-1.6l0,0
		c0.8,0,4,0.8,4,1.6V427.2z"/>
	<path style="fill:#6C498E;" d="M315.2,427.2c0,0.8-3.2,1.6-4,1.6l0,0c-0.8,0-4-0.8-4-1.6v-24c0-0.8,3.2-1.6,4-1.6l0,0
		c0.8,0,4,0.8,4,1.6V427.2z"/>
</g>
<g>
</g>
<g>
</g>
<g>
</g>
<g>
</g>
<g>
</g>
<g>
</g>
<g>
</g>
<g>
</g>
<g>
</g>
<g>
</g>
<g>
</g>
<g>
</g>
<g>
</g>
<g>
</g>
<g>
</g>
</svg>
