<svg xmlns="http://www.w3.org/2000/svg" viewBox="0 0 40 40" width="40px" height="40px"><path fill="#98ccfd" d="M7.51,17.5c0.264-6.662,5.765-12,12.49-12s12.227,5.338,12.49,12H7.51z"/><path fill="#4788c7" d="M20,6c6.28,0,11.449,4.849,11.959,11H8.041C8.551,10.849,13.72,6,20,6 M20,5C12.82,5,7,10.82,7,18 h26C33,10.82,27.18,5,20,5L20,5z"/><path fill="#98ccfd" d="M10.5 24.5H29.5V36.5H10.5z"/><path fill="#4788c7" d="M29,25v11H11V25H29 M30,24H10v13h20V24L30,24z"/><path fill="#4788c7" d="M13 32H27V33H13zM13 34H27V35H13zM13 30H27V31H13zM13 26H27V27H13zM13 28H27V29H13z"/><path fill="#dff0fe" d="M28.379,38.5l-3.495-12.53c-0.265-0.883-1.054-1.47-1.966-1.47h-5.836 c-0.913,0-1.702,0.587-1.964,1.461L11.621,38.5h-5.89l3.75-13.365c0.102-0.548,0.034-0.926-0.196-1.202 C8.964,23.549,8.43,23.5,8,23.5H6.5c-0.551,0-1-0.449-1-1v-6c0-0.551,0.449-1,1-1h11.037l-1-14h6.926l-1,14H33.5 c0.551,0,1,0.449,1,1v6c0,0.551-0.449,1-1,1H32c-0.43,0-0.964,0.049-1.286,0.434c-0.23,0.276-0.297,0.654-0.207,1.156L34.269,38.5 H28.379z"/><path fill="#4788c7" d="M22.926,2l-0.923,12.929L21.926,16H23h10.5c0.276,0,0.5,0.224,0.5,0.5v6c0,0.276-0.224,0.5-0.5,0.5 H32c-0.317,0-1.158,0-1.669,0.614c-0.326,0.391-0.432,0.918-0.314,1.565l0.008,0.046l0.013,0.045L33.609,38h-4.85l-3.399-12.183 C25.035,24.73,24.053,24,22.918,24h-5.836c-1.135,0-2.116,0.73-2.448,1.836L11.241,38h-4.85l3.572-12.73l0.013-0.045l0.008-0.046 c0.118-0.648,0.012-1.174-0.314-1.565C9.158,23,8.317,23,8,23H6.5C6.224,23,6,22.776,6,22.5v-6C6,16.224,6.224,16,6.5,16H17h1.074 l-0.077-1.071L17.074,2H20H22.926 M24,1h-4h-4l1,14H6.5C5.672,15,5,15.672,5,16.5v6C5,23.328,5.672,24,6.5,24H8 c0.801,0,1.143,0.212,1,1L5.071,39H12l3.597-12.895c0.197-0.656,0.8-1.105,1.485-1.105h5.836c0.684,0,1.288,0.449,1.485,1.105 L28,39h6.929L31,25c-0.143-0.788,0.199-1,1-1h1.5c0.828,0,1.5-0.672,1.5-1.5v-6c0-0.828-0.672-1.5-1.5-1.5H23L24,1L24,1z"/><g><path fill="#4788c7" d="M32 21L26 21 24 23 16 23 14 21 8 21 8 18 32 18z"/></g><path fill="#fff" d="M25.5,20h-11c-0.275,0-0.5-0.225-0.5-0.5l0,0c0-0.275,0.225-0.5,0.5-0.5h11 c0.275,0,0.5,0.225,0.5,0.5l0,0C26,19.775,25.775,20,25.5,20z"/></svg>