<svg id="Layer_1" enable-background="new 0 0 128 128" height="512" viewBox="0 0 128 128" width="512" xmlns="http://www.w3.org/2000/svg"><path d="m78.345 88.585c9.015-3.905 15.728-11.958 17.823-21.75.472.179.957.27 1.452.27 3.006 0 5.451-3.268 5.451-7.284 0-2.809-1.198-5.247-2.945-6.462v-13.275c0-17.065-13.829-31.894-30.894-31.894h-5.807v.022l-2.294-.022c-17.065 0-30.894 14.83-30.894 31.894v14.998c-.82 1.275-1.32 2.929-1.32 4.739 0 4.017 2.445 7.284 5.451 7.284.493 0 .982-.11 1.46-.297 2.086 9.635 8.683 17.606 17.46 21.589.002.081.009.161.012.242-.188.022-.375.045-.563.07-.159.021-.319.037-.478.059-.409.059-.815.13-1.223.202-.375.065-.749.135-1.121.211-.181.037-.364.063-.545.103-.026.006-.046.022-.071.03-3.386.747-6.64 1.925-9.713 3.543-11.362 5.981-19.118 17.132-20.746 29.828-.037.285.051.572.241.787.19.216.463.34.751.34l92.334-.002c.288 0 .561-.124.75-.34.19-.215.278-.502.241-.787-2.322-18.128-16.804-32.163-34.812-34.098z" fill="#e6e7e8"/><path d="m32.125 56.27v-4.53c0-.551.034-1.099.057-1.648-.555-.351-1.166-.556-1.814-.556-2.458 0-4.451 2.814-4.451 6.284 0 3.471 1.993 6.284 4.451 6.284.797 0 1.534-.32 2.181-.838-.274-1.625-.424-3.293-.424-4.996z" fill="#fff"/><path d="m50.368 85.526c-5.129.468-9.971 1.927-14.315 4.214-10.827 5.7-18.597 16.423-20.22 29.07h47.267v-23.04c-.365.034-.733.056-1.106.056-5.991 0-10.924-4.498-11.626-10.3z" fill="#fff"/><path d="m63.1 100.886c-.367.024-.733.052-1.106.052-7.48 0-13.789-4.977-15.819-11.798-3.579.73-6.981 1.945-10.12 3.6-9.96 5.24-17.34 14.74-19.71 26.07h46.76z" fill="#fa759e"/><path d="m61.994 95.826c-5.996 0-10.931-4.505-11.628-10.312-1.625.148-3.219.4-4.779.745.914 8.256 7.907 14.68 16.407 14.68.373 0 .739-.028 1.106-.052v-5.111c-.364.032-.733.05-1.106.05z" fill="#6dc9f7"/><path d="m61.994 86.139c-4.161 0-8.122-.853-11.721-2.39v.356c0 6.473 5.248 11.721 11.721 11.721.373 0 .742-.022 1.106-.056v-9.659c-.367.013-.735.028-1.106.028z" fill="#fff"/><path d="m50.772 29.94s-2.756 5.338-7.614 8.226c-4.322 2.555-8.836 3.556-9.797 3.749-.125.497-.259.992-.364 1.493-.286 2.447-.831 7.086-.815 6.684-.022.549-.057 1.097-.057 1.648v4.53c0 16.496 13.373 29.869 29.869 29.869.371 0 .739-.014 1.106-.028v-47.693c-8.011-3.787-12.328-8.478-12.328-8.478z" fill="#fff"/><path d="m74.345 84.585c9.015-3.905 15.728-11.958 17.823-21.75.472.179.957.27 1.452.27 3.006 0 5.451-3.268 5.451-7.284 0-2.809-1.198-5.247-2.945-6.462v-13.275c0-17.065-13.829-31.894-30.894-31.894h-5.807v.022l-2.294-.022c-17.065 0-30.894 14.83-30.894 31.894v14.998c-.82 1.275-1.32 2.929-1.32 4.739 0 4.017 2.445 7.284 5.451 7.284.493 0 .982-.11 1.46-.297 2.086 9.635 8.683 17.606 17.46 21.589.002.081.009.161.012.242-.188.022-.375.045-.563.07-.159.021-.319.037-.478.059-.409.059-.815.13-1.223.202-.375.065-.749.135-1.121.211-.181.037-.364.063-.545.103-.026.006-.046.022-.071.03-3.386.747-6.64 1.925-9.713 3.543-11.362 5.981-19.118 17.132-20.746 29.828-.037.285.051.572.241.787.19.216.463.34.751.34h18.287c.552 0 1-.447 1-1s-.448-1-1-1h-17.132c1.848-11.58 9.083-21.685 19.532-27.186 2.622-1.38 5.384-2.426 8.251-3.139 1.462 8.311 8.667 14.452 17.224 14.452.036 0 .071-.004.106-.005v15.878h-12.231c-.552 0-1 .447-1 1s.448 1 1 1h13.231c.003 0 .006-.002.01-.002h45.057c.288 0 .561-.124.75-.34.19-.215.278-.502.241-.787-2.323-18.128-16.805-32.163-34.813-34.098zm-47.428-28.765c0-2.864 1.581-5.284 3.451-5.284.262 0 .525.051.786.15-.016.351-.029.701-.029 1.053v4.53c0 .703.032 1.398.079 2.09.008.116.017.232.027.348.055.704.128 1.402.23 2.092-2.23 1.242-4.544-1.557-4.544-4.979zm35.183 44.117c-.036.001-.071.001-.106.001-7.61 0-14.026-5.477-15.285-12.883.118-.023.237-.042.356-.063.628-.116 1.259-.211 1.889-.295.19-.025.382-.044.573-.066.058.289.138.569.215.85.022.081.039.164.063.244.068.229.149.45.229.673.055.154.108.309.168.459.075.186.159.368.243.55.083.181.168.362.26.538.081.156.166.31.254.463.112.196.229.387.35.576.084.131.169.26.258.387.144.207.296.406.452.604.081.103.16.207.244.308.188.223.385.436.587.646.065.068.127.139.193.205.553.549 1.155 1.046 1.8 1.486.087.059.179.111.267.168.234.151.47.299.714.434.127.071.259.135.389.201.214.11.43.216.65.314.147.065.296.125.445.185.214.085.43.165.65.238.157.052.313.103.473.15.226.066.456.123.687.177.156.036.31.074.468.104.258.05.52.086.782.12.136.017.269.041.406.054.402.039.809.062 1.22.062h.106zm0-5.116c-.017 0-.034.002-.051.002-.116.001-.23-.009-.345-.011-5.289-.143-9.712-4.138-10.346-9.418 0-.004-.003-.008-.004-.012-.005-.046-.016-.09-.021-.136 3.409 1.257 6.988 1.894 10.661 1.894h.106zm0-30.446c-.036.001-.07.008-.106.008-1.322 0-2.397-1.075-2.397-2.396v-1.991c0-.553-.448-1-1-1s-1 .447-1 1v1.991c0 2.424 1.973 4.396 4.397 4.396.036 0 .07-.008.106-.008v7.737c-.104-.037-.213-.067-.33-.067-2.56 0-3.86-1.688-3.926-1.777-.324-.443-.946-.543-1.393-.221-.448.322-.549.947-.226 1.396.077.106 1.919 2.603 5.545 2.603.117 0 .226-.03.33-.067v9.16c-.036 0-.071 0-.106 0-15.918 0-28.869-12.951-28.869-28.87v-3.189l2.774-.7v.504c0 4.57 3.718 8.289 8.289 8.289h6.986c4.57 0 8.289-3.719 8.289-8.289v-2.778l2.638-.006v14.275zm-24.201-11.49v-4.284c0-2.91 2.368-5.278 5.278-5.278h10.983c1.821 0 3.302 1.481 3.302 3.303v6.26c0 3.468-2.821 6.289-6.289 6.289h-6.986c-3.467-.001-6.288-2.822-6.288-6.29zm24.201-4.784-2.638.006v-1.482c0-2.924-2.378-5.303-5.302-5.303h-10.983c-4.013 0-7.278 3.265-7.278 7.278v1.717l-2.75.694c.06-3.17.497-6.305 1.301-9.345 1.825-.454 5.326-1.501 8.709-3.501 4.858-2.888 7.614-8.226 7.614-8.226s3.964 4.296 11.328 7.985v10.177z" fill="#3a2c60"/><path d="m45.657 117.811h-7.125c-.552 0-1 .447-1 1s.448 1 1 1h7.125c.552 0 1-.447 1-1s-.448-1-1-1z" fill="#3a2c60"/><circle cx="48.817" cy="52.089" fill="#3a2c60" r="2.987"/><path d="m45.012 47.021c.057 0 .115-.005.172-.015l5.849-1.019c.544-.095.909-.613.814-1.157-.095-.543-.614-.9-1.157-.813l-5.849 1.019c-.544.095-.909.613-.814 1.157.086.486.508.828.985.828z" fill="#3a2c60"/><g fill="#0089ef"><path d="m97.973 109.569v-6.589c0-3.086-2.51-5.596-5.596-5.596h-4.34c-1.983 0-3.596-1.613-3.596-3.596v-4.583c-.657-.273-1.325-.525-2-.761v5.345c0 3.086 2.51 5.596 5.596 5.596h4.34c1.983 0 3.596 1.613 3.596 3.596v6.589c-1.048.403-1.795 1.413-1.795 2.603 0 1.544 1.251 2.795 2.795 2.795s2.795-1.251 2.795-2.795c0-1.191-.747-2.2-1.795-2.604z"/><path d="m77.058 96.329c1.544 0 2.795-1.251 2.795-2.795 0-1.19-.747-2.199-1.795-2.603v-3.721c-.661-.143-1.327-.27-2-.378v4.099c-1.048.403-1.795 1.413-1.795 2.603 0 1.543 1.251 2.795 2.795 2.795z"/><path d="m89.432 113.014.322-2.034c.022-.139-.073-.27-.212-.292l-.575-.091c-.11-.017-.198-.104-.213-.215-.047-.358-.131-.707-.25-1.041-.037-.105.002-.222.092-.288l.471-.342c.114-.083.139-.243.056-.357l-1.21-1.666c-.083-.114-.243-.139-.357-.056l-.471.342c-.09.066-.214.066-.302-.002-.281-.216-.587-.404-.913-.559-.101-.048-.156-.158-.138-.268l.091-.575c.022-.139-.073-.27-.212-.292l-2.034-.322c-.139-.022-.27.073-.292.212l-.091.575c-.017.11-.104.198-.215.213-.358.047-.707.131-1.041.25-.105.037-.222-.002-.288-.092l-.342-.471c-.083-.114-.243-.139-.357-.056l-1.666 1.21c-.114.083-.139.243-.056.357l.342.471c.066.09.066.214-.002.302-.216.281-.404.587-.559.913-.048.101-.158.156-.268.138l-.575-.091c-.139-.022-.27.073-.292.212l-.322 2.034c-.022.139.073.27.212.292l.575.091c.11.017.198.104.213.215.047.358.131.707.25 1.041.037.105-.002.222-.092.288l-.471.342c-.114.083-.139.243-.056.357l1.21 1.666c.083.114.243.139.357.056l.471-.342c.09-.066.214-.066.302.002.281.216.587.404.913.559.101.048.156.158.138.268l-.091.575c-.022.139.073.27.212.292l2.034.322c.139.022.27-.073.292-.212l.091-.575c.017-.11.104-.198.215-.213.358-.047.707-.131 1.041-.25.105-.037.222.002.288.092l.342.471c.083.114.243.139.357.056l1.666-1.21c.114-.083.139-.243.056-.357l-.342-.471c-.066-.09-.066-.214.002-.302.216-.281.404-.587.559-.913.048-.101.158-.156.268-.138l.575.091c.139.022.27-.073.292-.212zm-6.141 1.561c-2.088-.223-3.519-2.194-3.086-4.248.371-1.759 2.04-2.972 3.827-2.781 2.088.223 3.519 2.194 3.086 4.248-.371 1.76-2.04 2.972-3.827 2.781z"/><path d="m68.971 104.286c.142-2.809-2.092-5.124-4.868-5.128v9.744c.083 0 .164.009.248.004 2.479-.125 4.494-2.141 4.62-4.62z"/><path d="m64.29 112.858c-.064.003-.124-.006-.187-.005v3.855h1.856c.292 0 .529-.237.529-.529v-1.208c0-.231.149-.439.371-.505.719-.213 1.405-.498 2.052-.849.203-.11.456-.069.619.095l.853.853c.207.207.542.207.749 0l3.02-3.02c.207-.207.207-.542 0-.749l-.853-.854c-.164-.164-.205-.416-.095-.619.351-.646.636-1.333.849-2.052.066-.222.274-.371.505-.371h1.208c.292 0 .529-.237.529-.53v-4.271c0-.292-.237-.53-.529-.53h-1.208c-.231 0-.439-.149-.505-.371-.213-.719-.498-1.405-.849-2.052-.11-.203-.069-.456.095-.619l.853-.854c.207-.207.207-.542 0-.749l-3.02-3.02c-.207-.207-.542-.207-.749 0l-.853.854c-.164.164-.416.205-.619.095-.647-.351-1.333-.636-2.052-.849-.222-.066-.371-.274-.371-.505v-1.208c0-.292-.237-.529-.529-.529h-1.856v3.866c4.789.144 8.599 4.182 8.352 9.061-.222 4.386-3.783 7.947-8.165 8.169z"/><path d="m78.36 14.145c-1.457 0-2.638 1.181-2.638 2.638s1.181 2.638 2.638 2.638c1.103 0 2.045-.677 2.439-1.638h5.92c-.493-.699-1.016-1.361-1.556-2h-4.363c-.395-.96-1.337-1.638-2.44-1.638z"/><path d="m75.416 61.087c-4.634 0-8.404-3.771-8.404-8.404s3.77-8.404 8.404-8.404 8.404 3.771 8.404 8.404-3.769 8.404-8.404 8.404zm0-14.809c-3.531 0-6.404 2.873-6.404 6.404s2.873 6.404 6.404 6.404 6.404-2.873 6.404-6.404-2.872-6.404-6.404-6.404z"/></g><circle cx="75.416" cy="52.683" fill="#fa759e" r="3.574"/><path d="m73.207 78.3v-4.125c1.055-.4 1.809-1.412 1.809-2.607 0-1.543-1.251-2.795-2.795-2.795s-2.795 1.251-2.795 2.795c0 1.185.74 2.192 1.781 2.598v4.134c0 1.887 1.099 3.504 2.682 4.295.975-.438 1.922-.926 2.834-1.465h-.687c-1.56 0-2.829-1.27-2.829-2.83z" fill="#0089ef"/><path d="m83.696 74.661c-.99 0-1.795-.806-1.795-1.795v-4.568c1.048-.403 1.795-1.413 1.795-2.603 0-1.543-1.251-2.795-2.795-2.795s-2.795 1.251-2.795 2.795c0 1.19.747 2.199 1.795 2.603v4.568c0 1.724 1.162 3.166 2.739 3.627.575-.587 1.125-1.198 1.648-1.832z" fill="#0089ef"/><path d="m87.073 43.061c-1.51-2.818-4.435-4.569-7.632-4.569h-5.573c-.396-.957-1.337-1.63-2.437-1.63-1.457 0-2.638 1.181-2.638 2.638s1.181 2.638 2.638 2.638c1.106 0 2.05-.682 2.442-1.646h5.568c2.459 0 4.708 1.347 5.869 3.514l2.26 4.222c.174.325.513.528.882.528h4.449v-2h-3.85z" fill="#0089ef"/><path d="m92.901 36.853h-5.932c-.69 0-1.251-.562-1.251-1.251 0-1.793-1.458-3.251-3.251-3.251h-3.49c-.394-.961-1.337-1.638-2.439-1.638-1.457 0-2.638 1.181-2.638 2.638s1.181 2.638 2.638 2.638c1.103 0 2.045-.677 2.439-1.638h3.49c.69 0 1.251.562 1.251 1.251 0 1.793 1.458 3.251 3.251 3.251h5.932z" fill="#0089ef"/><path d="m81.899 21.542c-1.457 0-2.638 1.181-2.638 2.638s1.181 2.638 2.638 2.638c1.103 0 2.045-.677 2.439-1.638h6.221c-.26-.684-.535-1.35-.823-2h-5.398c-.394-.96-1.336-1.638-2.439-1.638z" fill="#0089ef"/><path d="m64.124 29.74h4.076c1.05 0 1.905-.854 1.905-1.905v-12.586c0-1.05-.854-1.905-1.905-1.905h-4.069v-.471l-.007 17.337z" fill="#fa759e"/><path d="m68.905 27.064v-11.043c0-.815-.661-1.476-1.476-1.476h-3.298l-.006 13.995h3.304c.815 0 1.476-.661 1.476-1.476z" fill="#ffd7e5"/><path d="m68.201 13.344c1.05 0 1.905.854 1.905 1.905v12.586c0 1.051-.854 1.905-1.905 1.905h-4.076v.941h.658v1.114c0 .26.21.47.47.47s.47-.21.47-.47v-1.114h1.219v1.718c0 .26.21.47.47.47h1.118c.26 0 .47-.21.47-.47s-.21-.47-.47-.47h-.647v-1.248h.318c1.569 0 2.846-1.277 2.846-2.846v-.529h1.248v.858c0 .26.21.47.47.47s.47-.21.47-.47v-1.329c0-.26-.21-.47-.47-.47h-1.719v-1.219h1.115c.26 0 .47-.21.47-.47s-.21-.471-.47-.471h-1.115v-1.219h1.115c.26 0 .47-.21.47-.47s-.21-.47-.47-.47h-1.115v-1.218h1.115c.26 0 .47-.21.47-.47s-.21-.47-.47-.47h-1.115v-1.219h1.115c.26 0 .47-.21.47-.47s-.21-.47-.47-.47h-1.115v-1.219h1.719c.26 0 .47-.21.47-.47v-1.12c0-.26-.21-.47-.47-.47s-.47.21-.47.47v.647h-1.248v-.318c0-1.569-1.277-2.846-2.846-2.846h-.318v-1.248h.647c.26 0 .47-.21.47-.47s-.21-.47-.47-.47h-1.118c-.26 0-.47.21-.47.47v1.719h-1.219v-1.115c0-.26-.21-.47-.47-.47s-.47.21-.47.47v1.115h-.65v.941h4.068z" fill="#0089ef"/></svg>