<?xml version="1.0" encoding="iso-8859-1"?>
<!-- Generator: Adobe Illustrator 19.0.0, SVG Export Plug-In . SVG Version: 6.00 Build 0)  -->
<svg version="1.1" id="Layer_1" xmlns="http://www.w3.org/2000/svg" xmlns:xlink="http://www.w3.org/1999/xlink" x="0px" y="0px"
	 viewBox="0 0 496 496" style="enable-background:new 0 0 496 496;" xml:space="preserve">
<circle style="fill:#0C86BC;" cx="248" cy="258.4" r="228.8"/>
<path style="fill:#086DA0;" d="M248,29.6c126.4,0,228.8,102.4,228.8,228.8S374.4,487.2,248,487.2"/>
<path style="fill:#6293A0;" d="M351.2,436.8c0,21.6-17.6,39.2-39.2,39.2H183.2c-21.6,0-39.2-17.6-39.2-39.2l0,0
	c0-21.6,17.6-39.2,39.2-39.2H312C334.4,398.4,351.2,415.2,351.2,436.8L351.2,436.8z"/>
<path style="fill:#BDD5DB;" d="M488,496c-3.2-40-36.8-72-78.4-72H86.4c-41.6,0-75.2,32-78.4,72H488z"/>
<path style="fill:#87B6C1;" d="M8,496h480c-3.2-40-36.8-72-78.4-72H88"/>
<path style="fill:#0B6382;" d="M296,446.4c0,13.6-12.8,25.6-26.4,25.6h-42.4c-13.6,0-26.4-12-26.4-25.6V169.6
	c0-13.6,12.8-25.6,26.4-25.6h42.4c13.6,0,26.4,12,26.4,25.6V446.4z"/>
<path style="fill:#00233F;" d="M200,169.6c0-13.6,12.8-25.6,26.4-25.6h42.4c13.6,0,26.4,12,26.4,25.6v276.8
	c0,13.6-12.8,25.6-26.4,25.6H224"/>
<ellipse style="fill:#0B6382;" cx="105.6" cy="209.6" rx="50.4" ry="54.4"/>
<ellipse style="fill:#00233F;" cx="110.4" cy="209.6" rx="45.6" ry="54.4"/>
<circle style="fill:#00FFF2;" cx="76" cy="209.6" r="4"/>
<polygon style="fill:#87B6C1;" points="88,232.8 72.8,224 88,215.2 "/>
<ellipse style="fill:#0B6382;" cx="390.4" cy="209.6" rx="50.4" ry="54.4"/>
<ellipse style="fill:#00233F;" cx="385.6" cy="209.6" rx="45.6" ry="54.4"/>
<circle style="fill:#00FFF2;" cx="420" cy="209.6" r="4"/>
<polygon style="fill:#87B6C1;" points="408,232.8 423.2,224 408,215.2 "/>
<path style="fill:#BDD5DB;" d="M408,304c0,46.4-12,80-57.6,80H152.8c-46.4,0-64.8-33.6-64.8-80V83.2C88,36.8,127.2,0,172.8,0h150.4
	C368.8,0,408,36.8,408,83.2V304z"/>
<path style="fill:#87B6C1;" d="M176,0h147.2C368.8,0,408,36.8,408,83.2V304c0,46.4-12,80-57.6,80H152"/>
<g>
	<path style="fill:#6293A0;" d="M324,0c45.6,0,84,36.8,84,83.2V304c0,46.4-12,80-57.6,80"/>
	<circle style="fill:#6293A0;" cx="157.6" cy="246.4" r="43.2"/>
</g>
<circle style="fill:#0B6382;" cx="157.6" cy="236.8" r="43.2"/>
<path style="fill:#00233F;" d="M128,206.4c16.8-16.8,44-16.8,60.8,0s16.8,44,0,60.8"/>
<circle style="fill:#13D1BA;" cx="157.6" cy="236.8" r="29.6"/>
<path style="fill:#0FAAA6;" d="M157.6,207.2c16,0,29.6,13.6,29.6,29.6s-13.6,29.6-29.6,29.6"/>
<g style="opacity:0.6;">
	<circle style="fill:#13D1BA;" cx="157.6" cy="236.8" r="19.2"/>
	<path style="fill:#0FAAA6;" d="M144.8,250.4c-7.2-7.2-7.2-19.2,0-27.2c7.2-7.2,19.2-7.2,27.2,0"/>
</g>
<g style="opacity:0.6;">
	<path style="fill:#13D1BA;" d="M144.8,250.4c-7.2-7.2-7.2-19.2,0-27.2c7.2-7.2,19.2-7.2,27.2,0c7.2,7.2,7.2,19.2,0,27.2
		C164,257.6,152,257.6,144.8,250.4z"/>
	<path style="fill:#0FAAA6;" d="M171.2,250.4c-7.2,7.2-19.2,7.2-27.2,0c-7.2-7.2-7.2-19.2,0-27.2"/>
</g>
<g>
	<circle style="fill:#F0FFFD;" cx="150.4" cy="228.8" r="6.4"/>
	<circle style="fill:#F0FFFD;" cx="163.2" cy="240.8" r="0.8"/>
	<circle style="fill:#F0FFFD;" cx="168.8" cy="247.2" r="2.4"/>
</g>
<g>
	<circle style="fill:#F2F4DC;" cx="152.8" cy="201.6" r="0.8"/>
	<circle style="fill:#F2F4DC;" cx="157.6" cy="201.6" r="0.8"/>
	<circle style="fill:#F2F4DC;" cx="163.2" cy="201.6" r="0.8"/>
	<circle style="fill:#F2F4DC;" cx="152.8" cy="275.2" r="0.8"/>
	<circle style="fill:#F2F4DC;" cx="157.6" cy="275.2" r="0.8"/>
	<circle style="fill:#F2F4DC;" cx="163.2" cy="275.2" r="0.8"/>
</g>
<polygon style="fill:#6293A0;" points="192,147.2 156,173.6 120,147.2 120,127.2 192,141.6 "/>
<polygon style="fill:#0B6382;" points="192,144 120,144 120,125.6 192,141.6 "/>
<polyline style="fill:#00233F;" points="120,125.6 192,141.6 192,144 160,144 "/>
<circle style="fill:#BDD5DB;" cx="338.4" cy="246.4" r="43.2"/>
<circle style="fill:#0B6382;" cx="338.4" cy="236.8" r="43.2"/>
<path style="fill:#00233F;" d="M368,206.4c-16.8-16.8-44-16.8-60.8,0s-16.8,44,0,60.8"/>
<circle style="fill:#13D1BA;" cx="338.4" cy="236.8" r="29.6"/>
<path style="fill:#0FAAA6;" d="M338.4,207.2c-16,0-29.6,13.6-29.6,29.6s13.6,29.6,29.6,29.6"/>
<g style="opacity:0.6;">
	<circle style="fill:#13D1BA;" cx="338.4" cy="236.8" r="19.2"/>
	<path style="fill:#0FAAA6;" d="M351.2,250.4c7.2-7.2,7.2-19.2,0-27.2c-7.2-7.2-19.2-7.2-27.2,0"/>
</g>
<g style="opacity:0.6;">
	<path style="fill:#13D1BA;" d="M351.2,250.4c7.2-7.2,7.2-19.2,0-27.2c-7.2-7.2-19.2-7.2-27.2,0c-7.2,7.2-7.2,19.2,0,27.2
		C332,257.6,344,257.6,351.2,250.4z"/>
	<path style="fill:#0FAAA6;" d="M324.8,250.4c7.2,7.2,19.2,7.2,27.2,0c7.2-7.2,7.2-19.2,0-27.2"/>
</g>
<g>
	<circle style="fill:#F0FFFD;" cx="345.6" cy="228.8" r="6.4"/>
	<circle style="fill:#F0FFFD;" cx="332.8" cy="240.8" r="0.8"/>
	<circle style="fill:#F0FFFD;" cx="327.2" cy="247.2" r="2.4"/>
</g>
<g>
	<circle style="fill:#F2F4DC;" cx="343.2" cy="201.6" r="0.8"/>
	<circle style="fill:#F2F4DC;" cx="338.4" cy="201.6" r="0.8"/>
	<circle style="fill:#F2F4DC;" cx="332.8" cy="201.6" r="0.8"/>
	<circle style="fill:#F2F4DC;" cx="343.2" cy="275.2" r="0.8"/>
	<circle style="fill:#F2F4DC;" cx="338.4" cy="275.2" r="0.8"/>
	<circle style="fill:#F2F4DC;" cx="332.8" cy="275.2" r="0.8"/>
</g>
<polygon style="fill:#6293A0;" points="304,147.2 340,173.6 376,147.2 376,127.2 304,141.6 "/>
<polygon style="fill:#0B6382;" points="304,144 376,144 376,125.6 304,141.6 "/>
<polyline style="fill:#00233F;" points="376,125.6 304,141.6 304,144 336,144 "/>
<path style="fill:#6293A0;" d="M286.4,320c0,8.8-7.2,16-16,24h-45.6c-8.8-8-16-15.2-16-24l0,0c0-8.8,7.2-16,16-24h45.6
	C279.2,304,286.4,311.2,286.4,320L286.4,320z"/>
<g>
	<path style="fill:#00FFF2;" d="M288,320c0,8.8-7.2,16-16,16h-48c-8.8,0-16-7.2-16-16l0,0c0-8.8,7.2-16,16-16h48
		C280.8,304,288,311.2,288,320L288,320z"/>
	<rect x="240" y="88" style="fill:#00FFF2;" width="16" height="16"/>
	<path style="fill:#00FFF2;" d="M256,40V22.4c0-3.2-4.8-5.6-8-5.6s-8,2.4-8,5.6V40H256z"/>
	<rect x="240" y="56" style="fill:#00FFF2;" width="16" height="16"/>
	<rect x="240" y="120" style="fill:#00FFF2;" width="16" height="16"/>
</g>
<path style="fill:#00D8DD;" d="M288,320c0-8-4-16-16-16h-48c-10.4,0-15.2,8-16,16H288z"/>
<path style="fill:#BDD5DB;" d="M201.6,292c0,7.2-5.6,12-12.8,12h-60c-7.2,0-12.8-4.8-12.8-12l0,0c0-7.2,5.6-12,12.8-12h60
	C196,280,201.6,284.8,201.6,292L201.6,292z"/>
<path style="fill:#6293A0;" d="M380,292c0,7.2-5.6,12-12.8,12h-60c-7.2,0-12.8-4.8-12.8-12l0,0c0-7.2,5.6-12,12.8-12h60
	C374.4,280,380,284.8,380,292L380,292z"/>
<g>
	<rect x="240" y="144" style="fill:#00FFF2;" width="16" height="32"/>
	<path style="fill:#00FFF2;" d="M240,200v-10.4c0-3.2,4.8-5.6,8-5.6c3.2,0,8,2.4,8,5.6V200h18.4L248,170.4L221.6,200H240z"/>
</g>
<polygon style="fill:#BDD5DB;" points="186.4,280 247.2,220 200,297.6 "/>
<polygon style="fill:#6293A0;" points="308.8,280 248.8,220 296,297.6 "/>
<g>
	<path style="fill:#87B6C1;" d="M292,404c0,0.8-0.8,1.6-1.6,1.6h-84.8c-0.8,0-1.6-0.8-1.6-1.6l0,0c0-0.8,0.8-1.6,1.6-1.6h84.8
		C291.2,401.6,292,402.4,292,404L292,404z"/>
	<path style="fill:#87B6C1;" d="M292,425.6c0,0.8-0.8,1.6-1.6,1.6h-84.8c-0.8,0-1.6-0.8-1.6-1.6l0,0c0-0.8,0.8-1.6,1.6-1.6h84.8
		C291.2,424,292,424,292,425.6L292,425.6z"/>
	<path style="fill:#87B6C1;" d="M292,447.2c0,0.8-0.8,1.6-1.6,1.6h-84.8c-0.8,0-1.6-0.8-1.6-1.6l0,0c0-0.8,0.8-1.6,1.6-1.6h84.8
		C291.2,445.6,292,445.6,292,447.2L292,447.2z"/>
</g>
<g>
	<path style="fill:#00FFF2;" d="M192.8,444c0,2.4-1.6,4-4,4H124c-2.4,0-4-1.6-4-4l0,0c0-2.4,1.6-4,4-4h64.8
		C191.2,440,192.8,441.6,192.8,444L192.8,444z"/>
	<path style="fill:#00FFF2;" d="M125.6,441.6c1.6,1.6,2.4,3.2,1.6,4l-23.2,24c-0.8,0.8-2.4,0-4-1.6l0,0c-1.6-1.6-2.4-3.2-1.6-4
		l23.2-23.2C122.4,440,124.8,440.8,125.6,441.6L125.6,441.6z"/>
	<circle style="fill:#00FFF2;" cx="89.6" cy="480" r="7.2"/>
	<path style="fill:#00FFF2;" d="M376,444c0-2.4-1.6-4-4-4h-64c-2.4,0-4,1.6-4,4l0,0c0,2.4,1.6,4,4,4h64C374.4,448,376,446.4,376,444
		L376,444z"/>
	<path style="fill:#00FFF2;" d="M370.4,441.6c-1.6,1.6-2.4,3.2-1.6,4l23.2,23.2c0.8,0.8,2.4,0,4-1.6l0,0c1.6-1.6,2.4-3.2,1.6-4
		L374.4,440C373.6,440,371.2,440.8,370.4,441.6L370.4,441.6z"/>
	<circle style="fill:#00FFF2;" cx="406.4" cy="480" r="7.2"/>
</g>
<g>
</g>
<g>
</g>
<g>
</g>
<g>
</g>
<g>
</g>
<g>
</g>
<g>
</g>
<g>
</g>
<g>
</g>
<g>
</g>
<g>
</g>
<g>
</g>
<g>
</g>
<g>
</g>
<g>
</g>
</svg>
