<svg id="Layer_1" enable-background="new 0 0 256 256" height="512" viewBox="0 0 256 256" width="512" xmlns="http://www.w3.org/2000/svg"><circle cx="162.252" cy="44.414" fill="#a4c9ff" r="36.357"/><circle cx="97.219" cy="51.759" fill="#a4c9ff" r="29.012"/><path d="m86.245 42.441c-.438 0-.877-.167-1.211-.501l-5.798-5.798c-.669-.669-.669-1.753 0-2.422.668-.669 1.753-.669 2.422 0l5.798 5.798c.669.669.669 1.753 0 2.422-.334.333-.773.501-1.211.501z" fill="#e0ebfc"/><path d="m108.194 42.441c-.438 0-.877-.167-1.211-.501-.669-.669-.669-1.753 0-2.422l5.798-5.798c.668-.669 1.753-.669 2.422 0s.669 1.753 0 2.422l-5.798 5.798c-.334.333-.773.501-1.211.501z" fill="#e0ebfc"/><path d="m148.499 32.745c-.548 0-1.096-.209-1.513-.627l-7.266-7.266c-.836-.836-.836-2.191 0-3.027.835-.836 2.192-.836 3.027 0l7.266 7.266c.836.836.836 2.191 0 3.027-.418.418-.966.627-1.514.627z" fill="#e0ebfc"/><path d="m176.006 32.745c-.548 0-1.096-.209-1.513-.627-.836-.836-.836-2.191 0-3.027l7.266-7.266c.835-.836 2.192-.836 3.027 0 .836.836.836 2.191 0 3.027l-7.265 7.266c-.42.418-.968.627-1.515.627z" fill="#e0ebfc"/><path d="m198.727 185.465h-130.637c-4.205 0-7.614-3.409-7.614-7.614v-89.466c0-4.205 3.409-7.614 7.614-7.614h130.638c4.205 0 7.614 3.409 7.614 7.614v89.465c-.001 4.206-3.41 7.615-7.615 7.615z" fill="#4671c6"/><circle cx="162.253" cy="44.414" fill="#f9cfcf" r="12.744"/><path d="m206.341 111.244v20.161 20.161l37.347 18.075c2.017.976 4.311-.585 4.311-2.934v-35.302-35.302c0-2.349-2.294-3.91-4.311-2.934z" fill="#f9a7a7"/><path d="m60.476 171.422h-10.362c-4.205 0-7.614-3.409-7.614-7.614v-61.38c0-4.205 3.409-7.614 7.614-7.614h10.361v76.608z" fill="#f9a7a7"/><g fill="#3762cc"><path d="m162.252 82.771c-21.15 0-38.357-17.207-38.357-38.357s17.207-38.357 38.357-38.357 38.357 17.207 38.357 38.357-17.207 38.357-38.357 38.357zm0-72.714c-18.944 0-34.357 15.413-34.357 34.357s15.413 34.357 34.357 34.357 34.357-15.413 34.357-34.357-15.413-34.357-34.357-34.357z"/><path d="m198.728 187.464h-130.638c-5.302 0-9.614-4.313-9.614-9.614v-89.465c0-5.301 4.313-9.614 9.614-9.614h130.638c5.301 0 9.613 4.313 9.613 9.614v89.465c0 5.302-4.313 9.614-9.613 9.614zm-130.638-104.693c-3.096 0-5.614 2.519-5.614 5.614v89.465c0 3.095 2.519 5.614 5.614 5.614h130.638c3.095 0 5.613-2.519 5.613-5.614v-89.465c0-3.096-2.519-5.614-5.613-5.614z"/><path d="m244.956 171.934c-.728 0-1.457-.164-2.139-.493l-37.348-18.075c-.69-.334-1.129-1.033-1.129-1.8v-40.322c0-.767.438-1.466 1.129-1.8l37.348-18.075c1.532-.74 3.306-.642 4.75.263 1.523.956 2.433 2.627 2.433 4.471v70.604c0 1.844-.909 3.516-2.433 4.471-.801.502-1.705.756-2.611.756zm-36.615-21.622 36.219 17.528c.372.181.686.072.882-.051.35-.219.559-.624.559-1.083v-70.603c0-.458-.209-.863-.559-1.083-.196-.124-.51-.231-.882-.051l-36.219 17.528z"/><path d="m60.476 173.422h-10.362c-5.302 0-9.614-4.313-9.614-9.614v-61.38c0-5.301 4.313-9.614 9.614-9.614h10.361c1.104 0 2 .896 2 2v76.608c.001 1.104-.895 2-1.999 2zm-10.362-76.608c-3.096 0-5.614 2.519-5.614 5.614v61.38c0 3.095 2.519 5.614 5.614 5.614h8.361v-72.608z"/><path d="m162.253 59.158c-8.13 0-14.744-6.614-14.744-14.744s6.614-14.744 14.744-14.744 14.744 6.614 14.744 14.744-6.614 14.744-14.744 14.744zm0-25.488c-5.925 0-10.744 4.82-10.744 10.744s4.819 10.744 10.744 10.744 10.744-4.82 10.744-10.744-4.819-10.744-10.744-10.744z"/></g><path d="m183.271 67.573c-.548 0-1.096-.209-1.513-.627l-7.266-7.266c-.836-.836-.836-2.191 0-3.027.835-.836 2.192-.836 3.027 0l7.265 7.266c.836.836.836 2.191 0 3.027-.417.418-.966.627-1.513.627z" fill="#e0ebfc"/><circle cx="97.22" cy="51.759" fill="#f9cfcf" r="10.169"/><path d="m97.22 82.771c-17.101 0-31.013-13.912-31.013-31.012s13.912-31.011 31.013-31.011c17.1 0 31.012 13.912 31.012 31.012s-13.913 31.011-31.012 31.011zm0-58.023c-14.895 0-27.013 12.117-27.013 27.012s12.118 27.011 27.013 27.011 27.012-12.117 27.012-27.012-12.118-27.011-27.012-27.011z" fill="#3762cc"/><path d="m97.22 63.929c-6.71 0-12.169-5.459-12.169-12.169s5.459-12.17 12.169-12.17 12.169 5.459 12.169 12.169-5.459 12.17-12.169 12.17zm0-20.339c-4.504 0-8.169 3.665-8.169 8.169s3.665 8.169 8.169 8.169 8.169-3.665 8.169-8.169-3.665-8.169-8.169-8.169z" fill="#3762cc"/><path d="m113.992 70.244c-.438 0-.877-.167-1.211-.502l-5.798-5.798c-.669-.669-.669-1.753 0-2.422.668-.669 1.753-.669 2.422 0l5.798 5.798c.669.669.669 1.753 0 2.422-.334.335-.773.502-1.211.502z" fill="#e0ebfc"/><path d="m80.447 70.244c-.438 0-.877-.167-1.211-.502-.669-.669-.669-1.753 0-2.422l5.798-5.798c.668-.669 1.753-.669 2.422 0s.669 1.753 0 2.422l-5.798 5.798c-.334.335-.773.502-1.211.502z" fill="#e0ebfc"/><path d="m177.746 158.163h-95.043c-3.31 0-5.994-2.683-5.994-5.994v-41.528c0-3.31 2.683-5.994 5.994-5.994h95.044c3.31 0 5.994 2.683 5.994 5.994v41.528c-.001 3.31-2.684 5.994-5.995 5.994z" fill="#6bdddd"/><path d="m156.334 137.044h-53.196c-3.269 0-5.919-2.65-5.919-5.919 0-3.269 2.65-5.919 5.919-5.919h53.196c3.269 0 5.919 2.65 5.919 5.919 0 3.269-2.65 5.919-5.919 5.919z" fill="#ffea92"/><path d="m177.746 160.163h-95.044c-4.407 0-7.993-3.586-7.993-7.994v-41.528c0-4.408 3.586-7.994 7.993-7.994h95.044c4.408 0 7.994 3.586 7.994 7.994v41.528c0 4.408-3.586 7.994-7.994 7.994zm-95.044-53.516c-2.202 0-3.993 1.792-3.993 3.994v41.528c0 2.202 1.791 3.994 3.993 3.994h95.044c2.202 0 3.994-1.792 3.994-3.994v-41.528c0-2.202-1.792-3.994-3.994-3.994z" fill="#3762cc"/><path d="m156.334 139.043h-53.196c-4.366 0-7.918-3.552-7.918-7.919s3.552-7.919 7.918-7.919h53.196c4.366 0 7.919 3.552 7.919 7.919s-3.553 7.919-7.919 7.919zm-53.196-11.837c-2.16 0-3.918 1.758-3.918 3.919s1.758 3.919 3.918 3.919h53.196c2.161 0 3.919-1.758 3.919-3.919s-1.758-3.919-3.919-3.919z" fill="#3762cc"/><path d="m82.476 176.795h-8.36c-1.539 0-2.787-1.248-2.787-2.787v-6.966c0-1.539 1.248-2.786 2.787-2.786h8.36c1.539 0 2.787 1.248 2.787 2.786v6.966c0 1.54-1.248 2.787-2.787 2.787z" fill="#6bdddd"/><path d="m82.477 178.795h-8.36c-2.639 0-4.786-2.147-4.786-4.787v-6.966c0-2.639 2.147-4.786 4.786-4.786h8.36c2.639 0 4.786 2.147 4.786 4.786v6.966c0 2.64-2.148 4.787-4.786 4.787zm-8.361-12.539c-.434 0-.786.353-.786.786v6.966c0 .434.353.787.786.787h8.36c.434 0 .786-.353.786-.787v-6.966c0-.434-.353-.786-.786-.786z" fill="#3762cc"/><path d="m141.234 67.573c-.548 0-1.096-.209-1.513-.627-.836-.836-.836-2.191 0-3.027l7.266-7.266c.835-.836 2.192-.836 3.027 0 .836.836.836 2.191 0 3.027l-7.266 7.266c-.418.418-.966.627-1.514.627z" fill="#e0ebfc"/><path d="m174.385 222.644h-4.923c-.185 0-.364-.07-.499-.197l-7.165-6.7c-.485-.453-.164-1.266.499-1.266h3.359l-4.1-3.834c-.271-.253-.628-.394-.999-.394h-116.436l17.772 16.619h113.307c1.327 0 1.968-1.625.999-2.531z" fill="#f9cfcf"/><path d="m118.32 214.482h-20.506c-.663 0-.984.812-.499 1.266l7.165 6.7c.135.127.314.197.5.197h20.506c.663 0 .984-.812.5-1.266l-7.165-6.7c-.137-.127-.315-.197-.501-.197z" fill="#f9a7a7"/><path d="m148.746 214.115h-20.244c-.655 0-.972.802-.493 1.249l7.073 6.614c.134.125.31.195.493.195h20.244c.655 0 .972-.802.493-1.249l-7.073-6.614c-.134-.126-.31-.195-.493-.195z" fill="#f9a7a7"/><path d="m175.201 228.872h-113.307c-.507 0-.995-.193-1.366-.539l-17.772-16.618c-.6-.561-.796-1.432-.494-2.195s1.039-1.266 1.86-1.266h116.437c.881 0 1.72.331 2.363.932l4.102 3.835c.6.561.796 1.432.494 2.195s-1.039 1.266-1.86 1.266h-.145l4.451 4.162h4.422c.507 0 .995.193 1.366.539l1.815 1.697c1.045.978 1.381 2.47.855 3.801s-1.79 2.191-3.221 2.191zm-112.518-4h111.157l-.244-.228h-4.134c-.698 0-1.363-.263-1.87-.742l-7.16-6.694c-.824-.771-1.089-1.948-.675-2.998.237-.602.667-1.082 1.203-1.382l-.614-.574h-111.158zm107.639-3.892.007.006c-.002-.002-.005-.004-.007-.006z" fill="#3762cc"/><circle cx="67.315" cy="188.628" fill="#f9cfcf" r="39.862"/><path d="m67.314 230.491c-23.083 0-41.862-18.779-41.862-41.862s18.779-41.862 41.862-41.862 41.862 18.779 41.862 41.862-18.779 41.862-41.862 41.862zm0-79.725c-20.877 0-37.862 16.985-37.862 37.862s16.985 37.862 37.862 37.862 37.862-16.985 37.862-37.862-16.985-37.862-37.862-37.862z" fill="#3762cc"/><path d="m67.314 129.314c-32.706 0-59.314 26.608-59.314 59.314s26.608 59.315 59.314 59.315 59.315-26.609 59.315-59.315-26.608-59.314-59.315-59.314zm-48.717 59.314c0-8.937 7.245-16.182 16.182-16.182s16.182 7.245 16.182 16.182-7.245 16.182-16.182 16.182c-8.937.001-16.182-7.244-16.182-16.182zm64.9-32.534c0 8.937-7.245 16.183-16.182 16.183s-16.182-7.245-16.182-16.183c0-8.937 7.245-16.182 16.182-16.182 8.937-.001 16.182 7.244 16.182 16.182zm-32.365 65.069c0-8.937 7.245-16.183 16.182-16.183s16.182 7.245 16.182 16.183c0 8.937-7.245 16.182-16.182 16.182-8.937.001-16.182-7.244-16.182-16.182zm32.535-32.535c0-8.937 7.245-16.182 16.182-16.182s16.182 7.245 16.182 16.182-7.245 16.182-16.182 16.182-16.182-7.244-16.182-16.182z" fill="#a4c9ff"/><circle cx="67.315" cy="188.628" fill="#f9a7a7" r="8.397"/><path d="m67.314 199.026c-5.733 0-10.397-4.664-10.397-10.397s4.664-10.397 10.397-10.397 10.397 4.664 10.397 10.397c.001 5.733-4.663 10.397-10.397 10.397zm0-16.795c-3.527 0-6.397 2.87-6.397 6.397s2.87 6.397 6.397 6.397 6.397-2.87 6.397-6.397-2.869-6.397-6.397-6.397z" fill="#3762cc"/><path d="m50.019 174.235-13.42-13.42c-.801-.801-.801-2.1 0-2.901.801-.801 2.1-.801 2.901 0l13.42 13.42c.801.801.801 2.1 0 2.901-.801.801-2.1.801-2.901 0z" fill="#e0ebfc"/><path d="m95.128 219.344-13.42-13.42c-.801-.801-.801-2.1 0-2.901.801-.801 2.1-.801 2.901 0l13.42 13.42c.801.801.801 2.1 0 2.901-.8.801-2.099.801-2.901 0z" fill="#e0ebfc"/><path d="m81.708 174.235c-.801-.801-.801-2.1 0-2.901l13.42-13.42c.801-.801 2.1-.801 2.901 0 .801.801.801 2.1 0 2.901l-13.42 13.42c-.801.801-2.1.801-2.901 0z" fill="#e0ebfc"/><path d="m36.599 219.344c-.802-.801-.802-2.1 0-2.902l13.42-13.42c.801-.801 2.1-.801 2.901 0 .801.801.801 2.1 0 2.901l-13.42 13.42c-.8.802-2.099.802-2.901.001z" fill="#e0ebfc"/><path d="m67.314 249.943c-33.808 0-61.314-27.505-61.314-61.315s27.506-61.314 61.314-61.314 61.314 27.505 61.314 61.314-27.505 61.315-61.314 61.315zm0-118.629c-31.603 0-57.314 25.711-57.314 57.314s25.711 57.314 57.314 57.314 57.314-25.711 57.314-57.314-25.71-57.314-57.314-57.314zm0 108.032c-10.026 0-18.183-8.156-18.183-18.182s8.156-18.183 18.183-18.183 18.183 8.157 18.183 18.183-8.156 18.182-18.183 18.182zm0-32.365c-7.82 0-14.183 6.362-14.183 14.183 0 7.82 6.362 14.182 14.183 14.182s14.183-6.362 14.183-14.182c0-7.821-6.362-14.183-14.183-14.183zm32.536-.17c-10.026 0-18.183-8.157-18.183-18.183s8.156-18.182 18.183-18.182c10.025 0 18.182 8.156 18.182 18.182s-8.157 18.183-18.182 18.183zm0-32.365c-7.82 0-14.183 6.362-14.183 14.182s6.362 14.183 14.183 14.183c7.819 0 14.182-6.362 14.182-14.183-.001-7.819-6.363-14.182-14.182-14.182zm-65.071 32.365c-10.025 0-18.182-8.157-18.182-18.183s8.156-18.182 18.182-18.182 18.183 8.156 18.183 18.182-8.156 18.183-18.183 18.183zm0-32.365c-7.819 0-14.182 6.362-14.182 14.182s6.362 14.183 14.182 14.183 14.183-6.362 14.183-14.183c0-7.819-6.362-14.182-14.183-14.182zm32.535-.17c-10.026 0-18.183-8.157-18.183-18.183s8.156-18.183 18.183-18.183 18.183 8.157 18.183 18.183-8.156 18.183-18.183 18.183zm0-32.365c-7.82 0-14.183 6.362-14.183 14.183s6.362 14.183 14.183 14.183 14.183-6.362 14.183-14.183-6.362-14.183-14.183-14.183z" fill="#3762cc"/></svg>