<svg id="Ebene_1" data-name="Ebene 1" 
    xmlns="http://www.w3.org/2000/svg" viewBox="0 0 600 600">
    <defs>
        <style>.cls-1{fill:#00b7c5;}</style>
    </defs>
    <title>Zeichenfläche 8</title>
    <path d="M103.47,330.94h7V444.15h-7Z"/>
    <path d="M266.15,387.55a72.51,72.51,0,0,1-3.65,23.22A55.61,55.61,0,0,1,252,429.64a49.1,49.1,0,0,1-16.89,12.61,58.48,58.48,0,0,1-45.42,0,48.85,48.85,0,0,1-17-12.61,55.61,55.61,0,0,1-10.54-18.87,75.72,75.72,0,0,1,0-46.45,55.71,55.71,0,0,1,10.54-18.87,48.7,48.7,0,0,1,17-12.6,58.36,58.36,0,0,1,45.42,0A49,49,0,0,1,252,345.45a55.71,55.71,0,0,1,10.54,18.87A72.53,72.53,0,0,1,266.15,387.55Zm-100.68,0a65.59,65.59,0,0,0,3.17,20.61A50.64,50.64,0,0,0,177.83,425a43.72,43.72,0,0,0,34.57,15.78,43.94,43.94,0,0,0,19.74-4.28A44.75,44.75,0,0,0,246.8,425a50.66,50.66,0,0,0,9.2-16.88,68.62,68.62,0,0,0,0-41.23,50.75,50.75,0,0,0-9.2-16.88,44.75,44.75,0,0,0-14.66-11.5,43.94,43.94,0,0,0-19.74-4.28,43.72,43.72,0,0,0-34.57,15.78,50.73,50.73,0,0,0-9.19,16.88A65.61,65.61,0,0,0,165.47,387.55Z"/>
    <path d="M295.32,337v-6h86.73v6H342.1V444.15h-7V337Z"/>
    <path d="M406.15,444.15H398.7l45.5-113.21h7.62l44.71,113.21h-7.45L448.33,337.76H448Z"/>
    <path class="cls-1" d="M491.65,294.72H108.35a4.93,4.93,0,0,1-4.85-5h0a4.93,4.93,0,0,1,4.85-5h383.3a4.93,4.93,0,0,1,4.85,5h0A4.93,4.93,0,0,1,491.65,294.72Z">
        <animate id="animation1" attributeName="opacity" from="0" to="1" dur="1s" begin="0s;animation2.end" />
        <animate id="animation2" attributeName="opacity" from="1" to="0" dur="2s" begin="animation1.end" />

    </path>


    <path d="M126.8,249.53a21.42,21.42,0,0,1-16.67-7.38q-6.61-7.36-6.61-18.76v-2.71q0-11.44,6.59-19t15.9-7.55q9.81,0,15.44,6.22t5.62,16.57v5H109.39v1.43q0,9,4.81,15.06a15.26,15.26,0,0,0,12.6,6.1,25.65,25.65,0,0,0,9.37-1.53,18.61,18.61,0,0,0,6.66-4.39l2.51,4a21.27,21.27,0,0,1-7.59,5A29.31,29.31,0,0,1,126.8,249.53ZM126,199.17a14.11,14.11,0,0,0-11,5,21.47,21.47,0,0,0-5.21,12.55l.1.25H141.2V215.5a17,17,0,0,0-4.09-11.64Q133,199.18,126,199.17Z"/>
    <path d="M164.2,244.15l8-.64V200.16l-8-.64v-4.39h13.9v48.38l8,.64v4.34H164.2Zm13.9-64.31h-5.87v-8.28h5.87Z"/>
    <path d="M201.94,244.15l8-.64V200.16l-8-.64v-4.39h13.27l.54,9.32a19,19,0,0,1,6.93-7.62A19.32,19.32,0,0,1,233,194.14q8.69,0,13.22,5.31T250.76,216v27.52l8,.64v4.34h-22v-4.34l8-.64V216q0-9.16-3.42-13t-9.74-3.8a15.31,15.31,0,0,0-10.14,3.28,18.28,18.28,0,0,0-5.64,8.71v32.25l8,.64v4.34h-22Z"/>
    <path d="M274.2,200v-4.83H283v-7.79q0-8,4-12.43t11.3-4.39a21.6,21.6,0,0,1,3.25.25,31.23,31.23,0,0,1,3.41.69l-.74,4.88a24.06,24.06,0,0,0-2.42-.47,22.15,22.15,0,0,0-2.91-.17,9.17,9.17,0,0,0-7.42,3.06q-2.6,3.06-2.59,8.58v7.79h12.72V200H289v43.55l8,.64v4.34H275v-4.34l8-.64V200Z"/>
    <path d="M354.6,248.49c-.39-1.81-.67-3.37-.83-4.68a31.24,31.24,0,0,1-.25-4,23.42,23.42,0,0,1-7.89,6.95,22.25,22.25,0,0,1-11.1,2.77q-7.83,0-12.13-4.05t-4.29-10.95a13.51,13.51,0,0,1,6.36-11.73q6.36-4.35,17.26-4.34h11.79V211.4a11.39,11.39,0,0,0-3.67-9q-3.68-3.26-10.29-3.26a26,26,0,0,0-8.11,1.21,18.39,18.39,0,0,0-6.14,3.28l-.49,7.15h-4.89l.05-10.25a30.56,30.56,0,0,1,8.86-4.64,33.51,33.51,0,0,1,11-1.78q8.82,0,14.2,4.49t5.38,12.87v26.24c0,1.08,0,2.13.07,3.13a25.66,25.66,0,0,0,.32,2.94l5.33.34v4.34Zm-19.43-4.19a21.4,21.4,0,0,0,11.3-3,17.51,17.51,0,0,0,7-7.64V223H341.63c-5.35,0-9.64,1.11-12.84,3.33s-4.81,5-4.81,8.41a8.8,8.8,0,0,0,3,6.93Q329.95,244.3,335.17,244.3Z"/>
    <path d="M403.25,244.55a16.8,16.8,0,0,0,10.35-3.36,11,11,0,0,0,4.49-9.32h5.23l.1.3a14.66,14.66,0,0,1-5.9,12.38,22,22,0,0,1-14.27,5q-10.86,0-16.82-7.47t-6-19.21v-2.07q0-11.64,6-19.14t16.77-7.5a27.17,27.17,0,0,1,11.29,2.32,22.18,22.18,0,0,1,8.33,6.31l.25,11.64h-5l-.94-9.47a16.74,16.74,0,0,0-5.89-4.21,19.6,19.6,0,0,0-8-1.56q-8.58,0-12.7,6.14t-4.12,15.47v2.07q0,9.47,4.09,15.58T403.25,244.55Z"/>
    <path d="M439.66,176v-4.39h13.9v32.69A19.13,19.13,0,0,1,471,194.14q8.43,0,13,5.23t4.51,16.23v27.91l8,.64v4.34h-22v-4.34l8-.64v-28q0-8.69-3.43-12.45t-9.44-3.78a16,16,0,0,0-10.13,3.18,18.5,18.5,0,0,0-6,8.46v32.6l8,.64v4.34H439.66v-4.34l8-.64V176.59Z"/>
</svg>