<svg id="Layer_1" enable-background="new 0 0 64 64" height="512" viewBox="0 0 64 64" width="512" xmlns="http://www.w3.org/2000/svg"><g><g><circle cx="36.031" cy="17.737" fill="#f68820" r="4"/></g><path d="m57.631 58.537-17.6-23.467v-16.833c0-1.104-.896-2-2-2s-2 .896-2 2v16.833l-17.6 23.467c-.663.884-.483 2.138.4 2.8.36.271.781.4 1.199.4.608 0 1.208-.276 1.602-.8l14.4-19.2v18c0 1.104.896 2 2 2s2-.896 2-2v-18l14.4 19.2c.393.523.994.8 1.602.8.417 0 .839-.13 1.199-.4.881-.662 1.06-1.916.398-2.8z" fill="#55525b"/><g><path d="m32.028 47.737c-.835 0-1.677-.261-2.397-.8-1.768-1.326-2.125-3.833-.8-5.601l6-8c1.327-1.767 3.833-2.123 5.6-.8 1.768 1.326 2.125 3.833.8 5.601l-6 8c-.786 1.048-1.987 1.6-3.203 1.6z" fill="#5c76b2"/></g><g><path d="m44.034 47.737c-1.216 0-2.417-.552-3.203-1.6l-6-8c-1.325-1.768-.967-4.274.8-5.601 1.766-1.324 4.273-.969 5.6.8l6 8c1.325 1.768.967 4.274-.8 5.601-.72.54-1.562.8-2.397.8z" fill="#5c76b2"/></g><g><g><path d="m56.708 11.996-3.939-.695c-3.263-.575-6.375 1.604-6.951 4.867-.575 3.263 1.604 6.375 4.867 6.951l3.939.695c3.263.575 6.375-1.604 6.951-4.867.575-3.264-1.604-6.376-4.867-6.951z" fill="#f68820"/></g><g><circle cx="51.727" cy="17.21" fill="#fbbe18" r="6"/></g><g><path d="m51.032 21.15-13.787-2.431 1.389-7.878 13.787 2.431c2.176.384 3.628 2.458 3.245 4.634-.384 2.174-2.458 3.627-4.634 3.244z" fill="#6fa4d8"/></g><g><path d="m37.245 18.718 13.787 2.431c2.176.384 4.25-1.069 4.634-3.245l-17.726-3.125z" fill="#5c76b2"/></g><g><path d="m32.958 19.993-13.787-2.431 2.084-11.818 13.787 2.431c3.263.575 5.442 3.687 4.867 6.951-.575 3.264-3.687 5.443-6.951 4.867z" fill="#6fa4d8"/></g><g><path d="m19.171 17.562 13.787 2.431c3.263.575 6.375-1.604 6.951-4.867l-19.696-3.473z" fill="#5c76b2"/></g><g><path d="m18.01 1.111-3.939-.695c-5.439-.959-10.625 2.673-11.585 8.112-.959 5.439 2.673 10.625 8.112 11.585l3.939.695c5.439.959 10.626-2.673 11.585-8.112.959-5.44-2.673-10.626-8.112-11.585z" fill="#f68820"/></g><g><circle cx="12.335" cy="10.264" fill="#fbbe18" r="10"/></g><g><circle cx="12.335" cy="10.264" fill="#55525b" r="8"/></g><g><path d="m11.332 2.326c-2.612.329-4.912 1.939-6.114 4.281.375 1.48 1.577 2.68 3.178 2.963 2.176.384 4.25-1.069 4.634-3.245.281-1.601-.435-3.141-1.698-3.999z" fill="#b3b4b6"/></g></g><g><circle cx="40.031" cy="17.737" fill="#fbbe18" r="4"/></g><g><circle cx="40.031" cy="17.737" fill="#55525b" r="2"/></g><g><circle cx="20.031" cy="59.737" fill="#f68820" r="4"/></g><g><circle cx="56.031" cy="59.737" fill="#f68820" r="4"/></g><g><circle cx="38.031" cy="59.737" fill="#f68820" r="4"/></g><g><path d="m38.031 47.737c-2.209 0-4-1.791-4-4v-8c0-2.209 1.791-4 4-4s4 1.791 4 4v8c0 2.209-1.791 4-4 4z" fill="#f68820"/></g><g><path d="m38.031 47.737c-2.209 0-4-1.791-4-4v-8c0-2.209 1.791-4 4-4s4 1.791 4 4v8c0 2.209-1.791 4-4 4z" fill="#6fa4d8"/></g></g></svg>