<?xml version="1.0" encoding="iso-8859-1"?>
<!-- Generator: Adobe Illustrator 19.0.0, SVG Export Plug-In . SVG Version: 6.00 Build 0)  -->
<svg version="1.1" id="Layer_1" xmlns="http://www.w3.org/2000/svg" xmlns:xlink="http://www.w3.org/1999/xlink" x="0px" y="0px"
	 viewBox="0 0 512.003 512.003" style="enable-background:new 0 0 512.003 512.003;" xml:space="preserve">
<polygon style="fill:#CFF09E;" points="48.608,455.541 62.125,14.729 394.427,304.682 191.4,311.074 "/>
<g>
	<path style="fill:#507C5C;" d="M404.112,293.585L71.81,3.631c-4.289-3.743-10.352-4.678-15.573-2.402
		c-5.22,2.277-8.659,7.357-8.833,13.049L33.886,455.088c-0.186,6.052,3.351,11.602,8.917,13.988
		c1.872,0.803,3.846,1.193,5.802,1.193c3.859,0,7.655-1.519,10.48-4.376l98.635-99.791l55.173,126.478
		c1.563,3.581,4.482,6.394,8.119,7.821c1.731,0.679,3.557,1.018,5.382,1.018c2.008,0,4.014-0.411,5.89-1.228l69.926-30.504
		c7.456-3.252,10.863-11.934,7.611-19.391l-34.752-79.664c-3.254-7.457-11.937-10.864-19.391-7.611
		c-7.456,3.252-10.863,11.935-7.611,19.391l28.864,66.163l-42.926,18.725l-53.988-123.759l17.724-17.932l197.148-6.205
		c6.052-0.19,11.373-4.065,13.408-9.769C410.335,303.933,408.673,297.565,404.112,293.585z M200.911,296.038l-54.612-125.191
		c-3.254-7.457-11.935-10.864-19.391-7.611c-7.456,3.252-10.863,11.934-7.611,19.391l54.612,125.191L64.479,418.532L75.893,46.293
		l280.609,244.849L200.911,296.038z"/>
	<path style="fill:#507C5C;" d="M330.054,365.312v40.451c0,1.909,1.547,3.456,3.455,3.456h22.68c1.909,0,3.456-1.547,3.456-3.456
		v-10.611c0-1.909,1.547-3.456,3.456-3.456h20.441c1.909,0,3.456,1.547,3.456,3.456v89.185c0,1.909-1.547,3.456-3.456,3.456h-7.418
		c-1.909,0-3.456,1.547-3.456,3.456v17.3c0,1.909,1.547,3.456,3.456,3.456h56.424c1.909,0,3.456-1.547,3.456-3.456v-17.3
		c0-1.909-1.547-3.456-3.456-3.456h-7.789c-1.909,0-3.456-1.547-3.456-3.456v-89.185c0-1.909,1.547-3.456,3.456-3.456h20.318
		c1.909,0,3.456,1.547,3.456,3.456v10.611c0,1.909,1.547,3.456,3.456,3.456h22.68c1.909,0,3.456-1.547,3.456-3.456v-40.451
		c0-1.909-1.547-3.456-3.456-3.456H333.509C331.6,361.856,330.054,363.403,330.054,365.312z"/>
</g>
<g>
</g>
<g>
</g>
<g>
</g>
<g>
</g>
<g>
</g>
<g>
</g>
<g>
</g>
<g>
</g>
<g>
</g>
<g>
</g>
<g>
</g>
<g>
</g>
<g>
</g>
<g>
</g>
<g>
</g>
</svg>
