<?xml version="1.0" encoding="iso-8859-1"?>
<!-- Generator: Adobe Illustrator 19.0.0, SVG Export Plug-In . SVG Version: 6.00 Build 0)  -->
<svg version="1.1" id="Layer_1" xmlns="http://www.w3.org/2000/svg" xmlns:xlink="http://www.w3.org/1999/xlink" x="0px" y="0px"
	 viewBox="0 0 511.882 511.882" style="enable-background:new 0 0 511.882 511.882;" xml:space="preserve">
<path style="fill:#434A54;" d="M511.882,255.941c0,141.357-114.598,255.941-255.941,255.941C114.583,511.882,0,397.298,0,255.941
	C0,114.598,114.583,0,255.941,0C397.285,0,511.882,114.598,511.882,255.941z"/>
<path style="fill:#656D78;" d="M469.22,255.941c0,117.801-95.493,213.295-213.279,213.295
	c-117.801,0-213.295-95.494-213.295-213.295c0-117.786,95.494-213.279,213.295-213.279
	C373.727,42.662,469.22,138.155,469.22,255.941z"/>
<path style="fill:#F6BB42;" d="M390.567,321.363L390.567,321.363L390.567,321.363l-113.302-65.422l113.286-65.407h0.016
	c5.093-2.952,6.842-9.467,3.905-14.575c-2.953-5.092-9.467-6.842-14.574-3.905l0,0l0,0l-113.303,65.423v-130.83l0,0
	c0-5.89-4.78-10.67-10.654-10.67c-5.889,0-10.669,4.78-10.669,10.67l0,0l0,0v130.829l-113.303-65.423l0,0
	c-5.093-2.937-11.622-1.187-14.559,3.905c-2.953,5.108-1.203,11.623,3.905,14.575l0,0l0,0l113.287,65.408l-113.286,65.422l0,0
	c-5.108,2.937-6.858,9.467-3.905,14.56c2.937,5.107,9.466,6.857,14.559,3.905l0,0l0,0l113.303-65.407v130.83l0,0l0,0
	c0,5.889,4.765,10.653,10.669,10.653c5.874,0,10.654-4.765,10.654-10.653l0,0l0,0v-130.83l113.303,65.407l0,0
	c5.107,2.952,11.621,1.202,14.574-3.905C397.409,330.83,395.66,324.299,390.567,321.363z"/>
<g>
	<path style="fill:#AAB2BC;" d="M255.941,10.669c-5.889,0-10.669,4.78-10.669,10.67c0,5.889,4.78,10.653,10.669,10.653
		c5.89,0,10.654-4.765,10.654-10.653C266.595,15.449,261.831,10.669,255.941,10.669z"/>
	<path style="fill:#AAB2BC;" d="M255.941,479.889c-5.889,0-10.669,4.78-10.669,10.67c0,5.889,4.78,10.669,10.669,10.669
		c5.89,0,10.654-4.78,10.654-10.669S261.831,479.889,255.941,479.889z"/>
	<path style="fill:#AAB2BC;" d="M143.966,62.001c5.093-2.952,6.843-9.467,3.905-14.575c-2.952-5.092-9.466-6.842-14.574-3.89
		c-5.108,2.938-6.858,9.467-3.905,14.56C132.344,63.204,138.859,64.937,143.966,62.001z"/>
	<path style="fill:#AAB2BC;" d="M367.916,449.896c-5.107,2.937-6.857,9.467-3.905,14.56c2.937,5.107,9.467,6.842,14.56,3.905
		c5.107-2.938,6.857-9.467,3.904-14.56C379.539,448.693,373.008,446.944,367.916,449.896z"/>
	<path style="fill:#AAB2BC;" d="M47.426,147.872c5.093,2.952,11.622,1.203,14.56-3.905c2.952-5.093,1.202-11.622-3.905-14.56
		c-5.093-2.952-11.623-1.202-14.56,3.905C40.585,138.405,42.334,144.935,47.426,147.872z"/>
	<path style="fill:#AAB2BC;" d="M464.457,364.009c-5.109-2.937-11.623-1.188-14.575,3.905c-2.937,5.108-1.203,11.623,3.905,14.575
		c5.093,2.937,11.623,1.188,14.574-3.905C471.298,373.476,469.548,366.962,464.457,364.009z"/>
	<path style="fill:#AAB2BC;" d="M21.323,245.287c-5.889,0-10.669,4.765-10.669,10.654s4.78,10.669,10.669,10.669
		c5.89,0,10.67-4.78,10.67-10.669C31.993,250.051,27.212,245.287,21.323,245.287z"/>
	<path style="fill:#AAB2BC;" d="M490.545,245.287c-5.89,0-10.654,4.765-10.654,10.654s4.765,10.669,10.654,10.669
		c5.889,0,10.669-4.78,10.669-10.669C501.213,250.051,496.433,245.287,490.545,245.287z"/>
	<path style="fill:#AAB2BC;" d="M47.426,364.009c-5.093,2.952-6.842,9.467-3.905,14.575s9.467,6.842,14.56,3.905
		c5.107-2.952,6.857-9.467,3.905-14.575C59.048,362.822,52.519,361.073,47.426,364.009z"/>
	<path style="fill:#AAB2BC;" d="M453.787,129.407c-5.093,2.938-6.842,9.467-3.905,14.56c2.952,5.108,9.466,6.857,14.575,3.905
		c5.092-2.937,6.842-9.467,3.904-14.56C465.41,128.205,458.895,126.455,453.787,129.407z"/>
	<path style="fill:#AAB2BC;" d="M143.966,449.896c-5.107-2.952-11.622-1.203-14.574,3.905c-2.938,5.093-1.203,11.622,3.905,14.56
		c5.108,2.952,11.622,1.202,14.574-3.905C150.809,459.363,149.059,452.833,143.966,449.896z"/>
	<path style="fill:#AAB2BC;" d="M378.57,43.52c-5.093-2.937-11.623-1.187-14.56,3.905c-2.952,5.108-1.202,11.623,3.905,14.575
		c5.093,2.952,11.623,1.203,14.559-3.905C385.427,53.003,383.677,46.473,378.57,43.52z"/>
</g>
<path style="fill:#FFCE54;" d="M341.25,255.941c0,47.13-38.193,85.323-85.309,85.323c-47.114,0-85.324-38.193-85.324-85.323
	c0-47.114,38.21-85.309,85.324-85.309C303.056,170.632,341.25,208.827,341.25,255.941z"/>
<path style="fill:#434A54;" d="M266.595,255.941c0,5.889-4.765,10.669-10.654,10.669c-5.889,0-10.669-4.78-10.669-10.669
	c0-5.89,4.78-10.654,10.669-10.654C261.831,245.287,266.595,250.051,266.595,255.941z"/>
<g>
</g>
<g>
</g>
<g>
</g>
<g>
</g>
<g>
</g>
<g>
</g>
<g>
</g>
<g>
</g>
<g>
</g>
<g>
</g>
<g>
</g>
<g>
</g>
<g>
</g>
<g>
</g>
<g>
</g>
</svg>
